<mxfile host="app.diagrams.net" modified="2024-02-28T18:38:50.635Z" agent="Mozilla/5.0 (Windows NT 10.0; Win64; x64) AppleWebKit/537.36 (KHTML, like Gecko) Chrome/122.0.0.0 Safari/537.36" etag="lQK2GpO2AVSlhx2vIYY9" version="23.1.7" type="github">
  <diagram name="Page-1" id="TOCyJyFI0-DAnXcw0cHk">
    <mxGraphModel dx="2318" dy="858" grid="1" gridSize="10" guides="1" tooltips="1" connect="1" arrows="1" fold="1" page="1" pageScale="1" pageWidth="850" pageHeight="1100" math="0" shadow="0">
      <root>
        <mxCell id="0" />
        <mxCell id="1" parent="0" />
        <mxCell id="CMUXqy-xraMfQoJJQTi_-2" value="Users" style="swimlane;childLayout=stackLayout;horizontal=1;startSize=30;horizontalStack=0;rounded=1;fontSize=16;fontStyle=0;strokeWidth=2;resizeParent=0;resizeLast=1;shadow=0;dashed=0;align=center;" parent="1" vertex="1">
          <mxGeometry y="160" width="360" height="120" as="geometry" />
        </mxCell>
        <mxCell id="CMUXqy-xraMfQoJJQTi_-3" value="+user_id             number           not null         PK&#xa;+email                varchar(30)&#xa;+password         varchar(20)&#xa;+description       varchar(100)" style="align=left;strokeColor=none;fillColor=none;spacingLeft=4;fontSize=14;verticalAlign=top;resizable=0;rotatable=0;part=1;" parent="CMUXqy-xraMfQoJJQTi_-2" vertex="1">
          <mxGeometry y="30" width="360" height="90" as="geometry" />
        </mxCell>
        <mxCell id="CMUXqy-xraMfQoJJQTi_-4" value="Legend" style="swimlane;fontSize=16;" parent="1" vertex="1">
          <mxGeometry x="1240" y="270" width="370" height="450" as="geometry" />
        </mxCell>
        <mxCell id="CMUXqy-xraMfQoJJQTi_-5" value="" style="shape=image;verticalLabelPosition=bottom;labelBackgroundColor=default;verticalAlign=top;aspect=fixed;imageAspect=0;image=data:image/png,iVBORw0KGgoAAAANSUhEUgAAAT8AAAGaCAYAAAB5d0T2AAAAAXNSR0IArs4c6QAAAARnQU1BAACxjwv8YQUAAAAJcEhZcwAAHYcAAB2HAY/l8WUAACuqSURBVHhe7d0HmFxV2cDxk00lQbAAUgMSBJEiIioaAUEQgiiCiBApSkRBmgV9bB8q1gdRwSCEGIiUECwoIoiooGADRSwUFRBpEYOUAOn12//hns1kMzM7s5nZnZnz/z2Z3Nk7d/q9733Pec+dO2T+goUrQrcVK1b0XMKQIcx49nq6LV7rVsxDur1UuXk5ip9ZvCwPS5csDYsWLeq+LAwLu6dbjRtXLNW3BQsWxOlaa60Vp31p9vK4/fbbww477FD8VZ2vv7rrr78+HHTQQfH6NddcE3bbbbd4XdUNIUb1ssq84jr/p/lxyqV7u+R618qNdGWAW7F8eVjefWHe8nQbfxfzuSxjWtzOhb+5rPJ4mV+6/+Pfynl8tul6jZek3G3lLkm528pdknK3VbrUs3xS7rZyl6TcbeUuSbnbKl3qWT4pd1u5S1LutkoXNsS0gZa73cvqlxRvesegFJ9SvGJZbovTYl78nLsvQ+bOm989/9kvgGnPJS7R6290X392suo0RtQSPfNzFT8zPvAV3ZnfkrB48aKY9ZEBjttyy2Khvi1cuDBOR40aFad9afbyuOOOO8L2229f/FWdr7+6G264Ibz97W+P16+66qowfvz4eF3lpZ1EjyLOpPk9t6e/49Vi58K05O8hz8ydF++9SpBL10v+ZuHhw4aFocOGhqFdQ0NXV/EkktQiiFkp++MS9Qp6PX8T/EoDXUoVS4PeyJEjwojhw5kjSW1j6bJlYdnSpc/+URoEu7rCkKefmbsy+BVBL0bM7uvDRwwPo+toTkhSK1q8ZElY3h0ICYBdBL7ueasUPGLHIJlf92XkyJEGPkkdgZbr0GHDeuIbsa4rNnWLwEe2R9ZHxjequ6krSZ2CmkXX0KE9LduuGAm5pQh8tIXH1DFmSpLaxcgR3Uldd9OXWBebvVzhQhBcy4xPUgcjAyTWxWYvWR/Tod0RcQSRUZI61LDu4BcLHinwDemeDnc4i6QMDB06dGW1l2bv0OHDipskqXNR+Hi22Ut/X3ceOHyowU9S5xtWmvlxGUJDWJIy0EVfX4x6TCUpE89mfrHkIUn56OK/ZwOgJOUjZn529UnKTRf9fc8WPIo5kpSBLhu8knIU+/xA9idJuegJfpKUk55qryTl5NnMz0M7JGUmDnWRpNzY5ycpSwY/SVky+EnKksFPUpYMfpKyZPCTlCWDn6QsGfwkZcngJylLBj9JWTL4ScqSwU9Slgx+krJk8JOUJYOfpCwZ/CRlyeAnKUsGPylDF198cZg0aVLxV54MflKbGj58eLzUg6C31VZbxcDH9RtvvLG4JT8GPykDpUHvgQceCJtvvnm44IILwh577FEskR+Dn9TBKgW9e++9Nxx11FHFUnky+EkdyKDXN4Of1EEMerUz+EkdwKBXvyGPzJ69ghOXL1++Irxw/fWK2ZJaXar0EugIeOn6aaedZsCrgcFPKtQ7bKQTLFmypLiWH5u9UrcrrriiuKZcGPykbmeddVacfu1rX4vZUDtcEpq6SerrK7d8uUvODH7K3qxZs8LNN98cxowZE97xjncUc9sHRQ0CXur7o+hB8YMiiCoz+Cl7Z599dpweeuihYYMNNojX2w0FDoNgfSx4KHsjR47sXv+Xh+uuuy7stddexdzWlwo05ZqvBLzTTz/dKnAVZn7K2g9+8IMY+F75yle2VeDri5lg3wx+ylpq8h522GFx2mkMgpXZ7FW2HnnkkTB27Niw1lprhbvvvjtsuOGGxS3toVqzt5LezeFf/OIX2f6yi5mfspWyPiq87Rb40J/hKqWZINdz/kkrMz9li4xv6dKl4dprrw177713MVe5MPNTlq688soY+HbZZRcDX6YMfspSaZNXebLZq+zMnj07bLrppmHUqFGx0LHRRhsVtygnZn7KTjqOlyM6DHz5MvgpO50+tk+1MfgpK1dddVUcHrLzzjuHffbZp5irHBn8lBWzPiUWPJSNRx99NGyyySZhxIgRsdDBdeXLzE/ZKM36DHwy+CkbKfhR5ZUMfsrC1VdfHRYtWhRe/vKXh3333beYq5wZ/JQFj+hQbxY81PFSoYOfgKLQwdEdkpmfOt7kyZPjlEKHgU+JwU8dz0KHyjH4qaNdc801YcGCBWGnnXYK++23XzFXMvipw1noUCUWPNSxUqFj2LBh4Z577rG/T6sw81PH+uY3vxmnZH0GPvVm8FPHssmragx+6kiclGjevHlhxx13DBMmTCjmSisZ/NSRUtbnT1epEgse6jip0NHV1RX+9a9/2d+nssz81HHOO++8OPWIDlVj8FPHKT1BkVSJwU8d5brrrgtz584NO+ywQ3jTm95UzJVWZ/BTR3F4i2plwUMdIxU6hgwZEu677z77+1SVmZ86xpQpU+LUIzpUC4OfOoZNXtXD4KeO8POf/zw8/fTTYbvttgsHHHBAMVeqzOCnjuARHaqXBQ+1vVTowL///W/7+1QTMz+1valTp8aphQ7Vw+CntpeavB7RoXoY/NTWrr/++jBnzpzw0pe+NLzlLW8p5kp9M/ipraXjeC10qF4WPNS2LHRoTZj5qW1NmzYtTunrM/CpXgY/tS0LHVoTBj+1pRtuuCE88cQTYdtttw0HHnhgMVeqncFPbcnjeLWmLHio7VjoUCOY+antXHjhhXF6yCGHGPjUbwY/tR2bvGoEg5/aCoWOxx57LGyzzTbhrW99azFXqp/BT21l8uTJceoRHVpTFjzUNix0qJHM/NQ2pk+fHqdve9vbDHxaYwY/tQ2P6FAjGfzUFih0/O9//wtbb711OPjgg4u5Uv8Z/NQWvvnNb8apw1vUKBY81PIsdKgZzPzU8i666KI4Peiggwx8ahiDn1qeR3SoGQx+amkUOmbPnh222mqrOMRFahSDn1raeeedF6ce0aFGs+ChlmWhQ81k5qeWdckll8QpP2Bg4FOjGfzUsix0qJkMfmpJFDoeeeSRMG7cuPijpVKjGfzUkqZMmRKnFjrULBY81HIsdGggmPmp5cyYMSNOOSWlgU/NYvBTy0mFDpu8aiaDn1oKhY5Zs2aFLbfc0kKHmsrgp5YyderUOHV4i5rNgodahoUODSQzP7WMmTNnxumb3/xmA5+azuCnlnHWWWfF6cSJE+NUaiaDn1oChY6HH344bLHFFhY6NCAMfmoJ06ZNi1OHt2igWPDQoLPQocFg5qdBd/nll8fpAQccYODTgDH4adClIzre+c53xqk0EAx+GlQUOh588MGw+eabW+jQgDL4aVBdeOGFceoRHRpoFjw0aCx0aDCZ+WnQfOc734nT/fff38CnAWfw06BJhY4jjzwyTqWBZPDToKDQ8cADD1jo0KAx+GlQTJ8+PU4PPfTQOJUGmgUPDTgLHWoFZn4acKnQMWHCBAOfBo3BTwNu8uTJcXrUUUfFqTQYDH4aUBQ6aOputtlmFjo0qAx+GlAXXXRRnHpEhwabBQ8NGAsdaiVmfhowqdCx3377Gfg06Ax+GjDnnHNOnB599NFxKg0mg58GBIWO++67L2Z8FjrUCgx+GhCXXHJJnHpEh1qFBQ81nYUOtSIzPzVdKnS88Y1vNPCpZRj81HTnnntunL773e+OU6kVGPzUVBQ67r333rDxxhtb6FBLMfipqWbMmBGnHtGhVmPBQ01joUOtzMxPTZMKHfvss4+BTy3H4KemmTJlSpwec8wxcSq1EoOfmoJCx9133x022mgjCx1qSQY/NUUqdHhEh1qVBQ81nIUOtQMzPzVcKnTsvffeBj61LIOfGm7q1KlxOmnSpDiVWpHBTw1FoeMf//hH2HDDDS10qKUZ/NRQM2fOjFOP6FCrs+ChhrHQoXZi5qeGSYWOvfbay8CnlmfwU8NMmzYtTo899tg4lVqZwU8NQaHjrrvuChtssIGFDrUFg58aIjV5Dz/88DiVWp0FD60xCx1qR2Z+WmMp69tzzz0NfGobBj+tsQsuuCBO3/ve98ap1A4MflojFDruvPPOsP7661voUFsx+GmNpCbvxIkT41RqFxY81G8WOtTOzPzUbynr22OPPQx8ajsGP/Xb9OnT4/S4446LU6mdGPzULxQ6br/99vCCF7zAQofaksFP/ZKavEcccUScSu3GgofqZqFDncDMT3VLWd/uu+9u4FPbMvipbhdddFGcHn/88XEqtSODn+pCoeOvf/1reP7zn2+hQ23N4Ke6pCbvkUceGadSu7LgoZpZ6FAnMfNTzVLWt9tuuxn41PYMfqrZJZdcEqfvf//741RqZwY/1YRCx5///OfwvOc9z0KHOoLBTzVJTd6jjjoqTqV2Z8FDfbLQoU5k5qc+paxv/PjxBj51DIOf+nTppZfG6YknnhinUicw+KkqCh233XZbWHfddS10qKMY/FRVavK+613vilOpU1jwUEUWOtTJzPxUUcr6Xvva1xr41HEMfqrosssui9OTTjopTqVOYvBTWRQ6br311rDOOutY6FBHMviprNTkffe73x2nUqex4KHVWOhQDsz8tJqU9e26664GPnUsg59Wc/nll8fpKaecEqdSJ7LZq1VQ6Nh3333D2muvHZ588slirtR5zPy0itTknTRpUpxKncrMTz0sdCgnZn7qYaFDOTH4qYeFDuXEZq+iVOgYM2ZMmDNnTjFX6lxmfopSk/c973lPnEqdzsxPsdBBHx/rgYUO5cLMTzHrI/BZ6FBODH6y0KEs2ezNXCp0jB49Ojz11FPFXKnzmfllLhU6jj322DiVcmHmlzEKHWPHjg3Lli2z0KHsmPlljKyPwGehQzky+GXMQodyZrM3U6nQMWrUqPDMM88Uc6V8mPllKhU63ve+98WplBszvwxR6Nhiiy3CkiVLLHQoW2Z+GSLrI/BZ6FDODH4ZstAh2ezNTip0jBw5MsydO7eYK+XHzC8zqdBx3HHHxamUKzO/jFDoeNGLXhQWL15soUPZM/PLCFkfgc9Ch2Twy4qFDmklm72ZSIWOESNGhHnz5hVzpXyZ+WUiFTqOP/74OJVyZ+aXAQod48aNCwsXLrTQIRXM/DJA1kfgs9AhrWTwy4CFDml1Nns7XCp0DBs2LCxYsKCYK8nMr8OlQscJJ5wQp5KeZebXwSh0vPjFLw7z58+30CH1YubXwcj6CHwWOqTVGfw6mIUOqTKbvR0qFTqGDh0ah7lIWpWZX4dKhY4TTzwxTiWtKuvMb/jw4XHKT7p3EgodW2+9dTyG10KHVJ6ZX50efPDB8PGPfzzstNNOYfTo0fHCdeZxWysg6yPwWeiQKjPz61Zr5nfhhRfGZmSl5Xm8c845JxxzzDHFnMExfvz48Ic//CHMnDkzHHLIIcVcSaXM/GpE4OMctwS+iRMnhhtvvDEWErhwnXncxjIsO1godBD4hgwZYuCTqjD41YDmbCocnHnmmWHGjBlh9913jycB4sJ15nEbWHawmsCp0HHyySfHqaTyDH41OO+883oyvg9/+MPF3NVxW8oAuc9Ao9CRgt8HPvCBOJVUnsGvBtdee22c0qTtS1om3WcgWeiQatfxBY9U1GgE+vdo5lazaNGiMGrUqOKvwWGhQ+qbmV8HMvBJfev44Ef/W6VLUu620st2220Xl7vlllvitJq0DPcp91gDcZHUNzO/GkyYMCFOzz///DitJi2T7iOpNRn8asAZz+g7vOyyy8JXv/rVYu7quI1lWNazpEmtzeBXg7Fjx8YjN3DqqaeGd77zneGmm26KxQ0uXGcet4FluY+k1uXhbd1q7Sdrl8PbJPXN4NetniIBR24wgJlxfHfffXecxy+o0MdHU9eMT2oPBr9uVkil/GTd50fQM/BJebLgISlLBj9JWTL4ScqSwU9Slgx+krJk8JOUJYOfpCwZ/CRlyeAnKUsGP0lZMvhJypLBT1KWDH6SsmTwk5Qlg5+kLBn8JGXJ4CcpSwY/SVky+EnKksFPUpYMfpKyZPCTlCWDn6QsGfwkZcngJylLBj9JWTL4ScqSwU9Slgx+krJk8JOUJYOfpCwZ/CRlyeAnKUsGP0lZMvhJypLBT1KWDH6SsmTwk5Qlg5+kLBn8JGXJ4CcpSwY/SVky+EnKksFPUpYMfpKyZPCTlCWDn6QsGfwkZcngJylLBj9JWRryyOzZK7qF5ctXhGlTzy9mS1JnM/OTlKVVMr8Xrr9eMVuSOpuZn6QsGfwkZcngJylLBj9JWTL4ScqSwU9Slgx+krJk8JOUJYOfpCwZ/CRlyeAnKUsGP0lZMvhJypLBT1KWDH6SsmTwk5Qlg5+kLBn8JGXJ4CcpS11PPP54ePKJJ7ovjxezJKnzmfm1uXnz5oUPfehDYbvttgu/+93virntj/cyfPjw8P73vz8sWLCgmCs1TteY56wTRq/9nHhpR2z8Z599djjwwAPD491ZbCNwNruHHnoonH/++eGtb31reOELXxg3xOc///lh3333DWeeeWZ44IEH4nKDbdasWeHGG28Md999d/jlL39ZzNVg4/t4xSteEdebHXbYIdx1113FLbXjPtzXnUBztG3m9/TTT4eLL744vO51rwunnnpqWLp0aXHLmnniiSfCJz/5yfCyl70snHjiieGaa66J8/DMM8+EG264IXz84x8PL3/5y+Ny6bbBsskmm4Q99tgjbL311mHPPfcs5qqV/OMf/wg/+9nP6tpZLlu2LPz4xz+O91VztFXwY4X44x//GJt5L37xi8OkSZMalu1h9uzZ4dhjjw1f+cpX4t/sbWl+PfbYY2HRokVxetttt4WTTjop7o1ZjuW5X7P8+9//jpnmpz71qbJ7/jFjxoSvfe1r4c477wyvfe1ri7l56+szG0gbbbRR3DH99Kc/Df/973+LuX2j5XHVVVfF+/IYary2Cn6LFy8O06dPD5MnTw7rrbdezPwuuuii4tY1Q/P585//fFzhdtxxx3D11VeHs846K7zyla8M6667bujq6opTmiEEm2uvvTa86lWvistzP+7fDL///e9jpjnYGWY7aaXPbP311w+bb755uP7668PNN99czO0bXRh/+MMfwk477RQeeeSRYq4aqe2avSnosYIffvjhYeTIkcUta+a73/1umDJlSlxRv/71r8csasiQIcWtq9t5553Dl770pbg89/vRj35U3CKt6o1vfGOcskOtZSf55JNPhp/85CfhJS95SezWUXO0VfBba621wumnnx6D3jrrrFPMXXPsWb/zne/E66ecckrYbbfd4vW+jB8/PjZ78cMf/jCutFJvu+66ayyc/fznP4/dJn351a9+Fa688sowYcKEGADVHG1b8Gikv//977GJQTP2zW9+c9WMr9TQoUPD/vvvH7baaqtwyy23xL6mhL4m+gzpG7zsssviPCqAFGdYnvkMT/niF78YHnzwwXh7Unrfo48+Os771re+FQM+87ikYS2ly1Yb6vLoo4+Gc889N1arqVqn5//gBz8Ym2PLly8vllyp93ugw/5vf/tbeM973tNTAefxfvCDH8Q+0UooTs2cOXOVyjnP/ZGPfCRWzRuhns+sVLnXxvdDf/IvfvGLqu+rVnzerCfsZPv6rMgMyRDp53v7298e+7mrodDH+3rf+94XP1NeP++DBIEgWu57ZXmWe9Ob3hT7zHlORjawM0/vn/W093dz//33x2V4PxT+qqF7isf6zGc+0+d7GCwGv2633357rORS4WXFqcemm24aO6VZsStV5ggaZJZklAzLec5znhObywTDT3/603EP/+tf/7pYurFY+b///e/HZjxZLSstGxZ9STz/OeecE18Xr6Nak4z3cPnll4fXv/71sQq5xRZbxPk83jve8Y7wjW98o2zF/a9//Wt4zWteE4466qhYOee9b7/99vG56VMlKFQL2s3C++F5qZCXvjZ2gGz0dK3wvRx33HHhf//7X3Gv/uN5eGwC6r/+9a9i7uoY3kKGuM8++4SXvvSlcadVCYGblgfV/gsvvDCug3THLFmyJH7nBx98cPxeqgUfinW8f0Y2zJ8/P66XvH/W04kTJ66yTm+22WbxdbGt3HTTTRUf96mnngrXXXdd/Dx33333mCS0ouyDH0UUKmtg2AhN63qMGjUq3g/pcXpjD3zGGWfEQgkr7J///Odw7733xsthhx0WAwGVybSn5TWQpbESp4IOKzn3ZR6XWiq7Kei+973vjSssFVD29FSGqZrzePR1Ery//OUvx+esNGSI4HDeeefFx2NsIZku9+c9sZLT/8kG0RsBlUyHjYkNmffM+//Pf/4Tsyve+wUXXFBTX1g19X5m7GzY6MnWyUDJvnltv/3tb2MWSZBi+UsvvTR2tazp60uBo9qwFz57CmgEsQMOOCBW8qvhPfGZkvXRemE0At8L9586dWpchs/2n//8Z7zeG9XnT3ziEzHT4/3zvdxzzz0xu+e10hpiREN67wQx+i/5vn/zm99UHOXAd8qO5Q1veEMcEtaqsg9+7L3Y42Hs2LFxWg+C34YbbhivVwocV1xxRfjCF74Q96SlwZW9LHvmQw45JK4s9PM0Eis0xRiQZZ188smr9JXyWg466KAY1HgtF3dnO6y45bAhUNVmoxg2bFicx/1pAhPA0xjI3tkAFXI2aJqkz3ve84q5z1ZBGbJEZf2OO+6oaxjImqJvlvfMzoaqMMGtdDgJ749siqYg2dqMGTNiUFkTBI63ve1tsQ+v0rAXPnvWAYIG/YR9YQQC3RasQwQw/gZFQL4TLgRbPt9yCHIE5dNOO63n/dPls+2228bPhXmsl/fdd1+8DdzG62NgfbmB2wR1MlcCMFl96Xfeamz2lmhWek6AoWlZri+RlePQQw+N1//yl7/EINIoZDGsvDz/W97ylop9ma9+9atjXycbCituOdzOcr0RAGkKg6ElZNKl6Iei+VbOC17wgrjjoAjQzLGSvZEl0SxjIz7iiCN6gnlv22yzTex34zuh+tr7vdWLDHvvvfcuO+yFoEFGyHfAc6YdajWsOzxeCnql+F5Si4RsrhyCG9lvuQyTrgmyNrLh0nWS5ySogSDe+zMhqNMCYKfR6oPuDX4lSgsWtVq4cGHPXnzttdeO097Yi1drwhAcWNloNjcq+JGBpT1zX89PpsB4RrCy8556oy+p0rAi+j1BJpWy6N7oB7r11ltjcYFMg8MR6Q9igx9oNPv5nHfZZZewwQYbFHNXx86CjRgEkDVt+vL5sROh2Ui/KU3yhHWIYMLzEZRrLbqBAETQJEDTtUFAZ4gMxYZqWO9S321vpd05FDpKpf5LhpvRfVGKz5bgTj/vxhtvXMxtTdkHv9I9JCtguQ2/GpanDwxbbrllnPbWV98NKzp7b5pjc+fOLeauGTaINMj3RS96UZxWkzYCgma5/qj+ZsV8phQNeA2p8EH/IBsqOwsqhwMtFRFo6vf1vhhXStOcLo1yldN6kU0R3GjesjNICHwEDboVaIrWgr5UmuYEMQbfs0OhuUq/LOsSmWY1vPdyWWNfyBgJfnSF0E+Y8HpS4YjscMSIEcUtrcnMrxsrN2h+pSyuVg8//HDsq6EvZ9y4ccXc/iFINmrQdiugKXvCCSfETncCH9ViMig65gnOBECyr5zQbKQbgsyT7I+AkQY1E1QYflLLjoZgTF8fVVrWGTI+gimBnYINGRh9zM1QmsHSTcLzgX4+AiLBvZULHYnBrxt7zbQnY+9bLvMphyyJlZamIvcnk+gPVn6a3GwYjRq8zQY0evToeJ2Vsi+pacN9+pvl9cZnSbGDqi5VZTr8yTApgtTTrGu01D3B59LXd02gpjDAhl6pb7BeNBsJEGnYC9lTyvoq9Y/2RhGCnQk7bgpqDGNiqBbrUKNeZzUpg6UQlEY5pEPyWr3QkRj8uhG0qIyB4RKVhgb0RkGBgbRsGNy/UvOWvrfeVdCEjY++EzIBgnCjgh9NDooNYKhNtf4qsg+GvoD7NKq5kvpQ6dsr99nwnufMmVP8NXD4nPnOKAZVy/T5btiYQWZfqU+3XhQz9ttvv9hPx4BmdqCotg71loIyRahyO12+U5ZpFoIb/Yq8BrYD1i+GvxCMGQjdDgx+3chCqLhSEeXLZNxUaV9Gb2wUbDgMM6CTn+EebOCVcNxvuWEBINB+73vfixvjXnvt1bCsC6ljmkPvyMAqZTnsvWmCMa6N19Bo5QYJ02zjfafgMpBS1kK2xTi+SkOU0ndDcKGZ16jvhvWN8XIEVMYkkhXzevrTBVCuwo70nTYTmSrvgaBHk5smMNtBf1tAA83gV+DIDjriCQAENvbMjGuj74Q+DQIHFUsypA984ANxECqBkibdxz72sap9dVTO3vWud8WVI21odJ6z4RNomR555JGxX6w3mokERlbmakcGlMNKSJ8QeM30EZVWGHlfBMbjjz8+bkQUJvoz1rGSVGhh/CAbSCoY8Bp4LWz0zdhQ+vrMyFr4WTKem++c6nNp1wDfEePY0nfDlCZlI9E/zBEk9Bf3Z0xcKsRQLefzTf1uvHbWMwbN073QTLwHhtowRIsmOMU6dhLt0m9t8CtBdYxKGYGKYPDZz342HgZGU5SmICscwZGmMcct0snML8D0VbFMhyCxgjO0gqYKj0XzgEDL0ARWVirPvTGolONnCbRkLAxJoWnK/fpChsGYMTZwcLwmY+u4P4/D+yLjpXnEIGiWbWRfHJkBx8zy2slC+Xx5D7wGBg4TdBhL12i1fGaMu+T7o8jAUQwEfQYK853wPbBRc9gj6wA7kEb3oxEg+LxT5bTeMXEEHgoadB0wWJwRC6xXrF8cbkgTmh10M/EeKNDwOU+bNq1tCh2Jwa8X+mMYPsDejEN/6Ncgi0Bq/nB0ABsGnczlAlZv9BURgAisbIhUlQmeHNlBnw9HYXDEQzlkAwRYVnCen9f13Oc+t+c19YWNNmUwvJ90TC+PQxOF10U2yxCURm/gvKdvf/vb8fhhNnC6CNhY+dw4wL/0cLNGquUzI8gTmNOhh3wWvD4+Jz4jPiuCJUNHavmO+4PiBjuIeoa3JDTB6XYhy2OIC6ik023BZ0sWPxBDTdipEPRAU76e7HWwDbn/oYe7W3QrYpNk7CatPSixndAM+fCHPxwLIvTrNGvYgTSYGONKS4nCETv3WqvVrcDMT1K/kDQxOJvsmW6CNR3nOtAMfpL6hUPbKHTQndBOhY7E4Cepbgxf+tznPhezvkojFVqdwU9STejHTr+WzY8WcNgiY2MpDjWrKNRMBj9JNaFCzphVMGyJIUL8gnS9v37eKqz2SsqSmZ+kLBn8JGXJ4CcpSwY/SVky+EnKksFPUpYMfpKyZPCTlCWDn6QsGfw0qPhh1Ve84hXxwnVpoBj8BtHjjz8efwacA8X5KfwbbrihuKV2nP+B843wGDwWjympbwa/FlF6Eut6cK5UzkImqT4GvxbASWz4lYx0EutacbJzzr7GfXkMrcQ5gzlBESeGSmc2k0oZ/FoE5z7gJNacipBf2alFOtM/p4jkjGhaiRPBc/IhzsInlWPwawH023FqS06dyDkROBlMX2gep5NSc9asri6/SqkebjEtglMAUrggk6Mfry+cK/WKK66I56flfK2S6mPwaxGc/IWTwHAyGPrx6M+rZNmyZeGaa66JGSMnHR89enSYP39+cevq+KHaO++8M3zkIx+J5w1O1WVOas05XssVWUor0Zy/lsfgfA2ca5j7cuE687itEprwNOd5bgI8j8eUvx966KFiqcqWLl0an59zD6f788vBhx9++GrPXfoz60cffXScx6lDOTk789J76e3pp58OM2fOjOfx5bFZjix80qRJsR+2UhHqsssui8vynPPmzYvdEJyInHknnXRS/KVjrvM43F5JqtjvsMMO4a677irmqtkMfi2Es91zAmiyPzakSgganKyaZXfddddYKb733nuLW1e1ePHi8OlPfzqeiPuss86KJ/Deeeed40Z53XXXxbP7cw6GakUBAtBXv/rVeHJt7s+JwHnOH/3oR+Hggw+O52st10/J/TjBOycn57kZx7f99tvHYMLfhx12WNWNnaB07LHHxi4Bfi6dIMFrX7JkSfj+978fn/sb3/hG3Bn0B6+ZYLjnnnvGk7azQ2Hnk06wfvHFF4cJEybEE4Bzwp5qeBwC35VXXhn/5jXx/bzkJS+JJ0Ln8Sq59dZb43fO8/LZamAY/FoIZ7vff//9qw57YYNlQ2GDIlvYcMMNi1vKYyMkiyNLu+WWW2KQY0ogIXixsU2fPj0WCCoh8Nx4443h5ptvjgGMwPzoo4+Gj370o/G1fvGLXwx///vfi6Wfxev83ve+F6utZInf/va3YzDjvvfcc098nG222SaccMIJsTJbDkGO5yHr4/Efe+yxntc+derUuAwn0fnnP/8Zr3MSnXPPPTfejxPFg+DJ8zKPC4E4+fWvfx2DHs9PJvrggw/Gnchvf/vb+DmR9bH8pZdeGk4//fSK2RtFFV4PGSCfNc/D69h2223DbrvtFjNfHrMcvuM0vpNMfMyYMfG6ms/g12IoXrz+9a+vOOyFYghBhYyCZTmpTDXczhm2CD5kTcOGDYvzKZCQ1RxzzDExgP3xj3+M88shWDFshKMwUmGFQH3KKafEpnq5jZtAMmXKlHidUxxOnDix5wxfvCYq1JMnT4735/nL4bk++MEPxuyOZmh6broIyBq58Nx33HFHnF8PuhXISsnIqAoT3EqHC/E5kXGef/75MSObMWNGDLzl0PdK1n7yySfHJnbC+yVbBplhuffJ89900009WbwGjsGvxXBKQPraKg17Ifsi86N/ivF9feFsW2SI5U4oTRDaYost4nU2wkpNX5pzZGm9bbDBBj3FFjK0UhRk2OAPOuigGHzLBWmyHDIvmprlEGD33nvvspVsAssmm2wSrxOc60UmSbOfoHPEEUf07BR6433z/glcP/nJT2I3Qm/siPg+yj0GAS11ZZR7new0+KxqyeLVWAa/FkOQIKNjg6IPirPiJzS7rr766pihEFAqbbDl0P9GgCOjPPvss2MnPH1dJ554YrFEZWR85YIXNttsszidNWtWT/AkYKc+Szb+ak259dZbL2aB1RBw2BkQfMhACVave93rwmc+85liifpRACKg7bLLLjGIV8L7JvMDwatc05dCTArEvRHQCGw01cnwSndmPD/z+D533333ip+xmsPg14LGjRsXMx6qmWR/Cc0uKsE0pRgUXQuqodyHKi9NR5q6p556auzMp3BSSwf70KFDi2u1WbhwYc9YxTXJZugPo9nJe6USeuCBB8YmKgUWmq21ZL6VpEyV99/X+yNA77jjjnEHUq6yTZ/miBEjir9WRUAbP358DHBkeXPmzCluCTGgkxHyfZbLrNVcBr8WRBOVSiYbDNkOGzqBgCII2UKtHeNkGQQKsjwySKq+v/nNb+J1Mhg69+nob6bnPve5xbX6EGjo6yMz5fMg46MqStAiwyRzox+xHRC8CXAEulQY4rshGJIRWugYHAa/FkVxIm0wNCEpftBkradjnMojHfVrr712uPzyy2PllT669ddfv2Km0ghkOymbuv/+++O0EoJ6uTGK9913X3zNZFwUFCiuvOxlL4v9gPU09yvhMwHBp3e/am9UmemXo2+yP89NYCPAseMim+f5yIw5msdCx+Ax+LWo0g2G7I++PppJdL7X2pRkCAYbN01GgkhvbIS9CxWNQJGFJjZuu+22skN2ErK5cmMUU8AhWJdrmvOYLNNffCYEM4oy1Q4n5DNiWBHoh01Bs17szF7zmtfEPj6ejwyQx6Wvz0LH4DD4tbBUKfzud78bx63R8c7f9XaME0Dnzp1b/LUS4+MYNtMMjI+j2U5TvdIQEYokHCVRDQG8XIWVx0zHNvdH6YByxvHRzC4nfUYEYIbl1Nv/mWy66aZhr732igGPgeLs0AikZPcWOgaHwa+FkREw7IXsjUHBbCipuloLOuIJQAxgZhBuOmSOTvs//elPsfDRrA2PIzkY5kKFmbF6HJGSAkx6fgYg04xNWWKpVGSg4ENxJlWSeQweiyb8uuuuG+eVwxAeMjuCZLnxkjwvh6AR1L70pS+F0047LX7OCc/DwG4GWBOwmNLs7i+CJt8lAY+jU3j/fJ+1Fq7UeAa/FkZgItsg4yOIsfHUk3kQQI488sgYBM4444yecXk8Flkl2Q/j7JqBcXgcNseRJTRfOXKFeaXPT1X7Yx/7WDw2uTduo6BB1vqhD30oDiXhvrwHDsljgDPdApVwdAU/+sBz8z6pdjMkhWZuwtEXFFJ4PRyHO3bs2BiIqc7yWqm433777eGzn/1sLLysaV8jzWayTYI5hScLHYPL4NfiyPTIEPqbJfDDB3Syc6A/mSB9cBznSxWY7Km/fVi14EcCpk2bFjd2AhFBmLFyBCKen8BT6fkJ8iljZIgLuC9NR36MgeNtqxVtyOy+/vWvx8BJdkdTk8ozryFh58LgZD4fdg70v5GpkunxGRG8CZYMryEYrimem+cAR48QzDV4htz/0MMr6NSlKTJ2k42L2ZIaje2M46QJ3J/85CfD//3f//W7D1FrzsxPGiCMr2T4Tn+6MNR4Bj9pAJD1Ma6PJraFjtZg8JOajC6la6+9NlaV6X/kiBsLHYPP4Cc1CcUSfjSWw/Mo2jBmkZ/3YrCzBl+XAyyl5iDwUWGnysuQHwY2M0THba41DHng4Vkrli9bFpavWGG1V1I2YrPXPZGk3KzS51fut8okqdNQfe8JfmR/nHhFkjodJ/ZapeCxcGHlnx6SpE5BotfVnf/FrI/L/IULi5skqXPF4EfQS79ju2Tp0jBvfuWTV0tSu1u0eHFYtnz5ympvavw+/Uz5c6hKUidYVLRwY+bHBUyXdqeDjxc/eilJnWTuvHmx2EGs6+r+n7ovkS/OWNF9mTdvfpgz56licUlqf5woK54SoYh1PZlfvHQvkKZPz50bHnviiXgnSWpnz3THs4WLFq0S47riH13dCSBLFDND8TcZ4H/+OztOJandcJa/OU89FTO+VWPdkPD/Q7HhlP8QHRMAAAAASUVORK5CYII=;" parent="CMUXqy-xraMfQoJJQTi_-4" vertex="1">
          <mxGeometry x="20" y="70" width="127.78" height="164.24" as="geometry" />
        </mxCell>
        <mxCell id="CMUXqy-xraMfQoJJQTi_-6" value="" style="shape=image;verticalLabelPosition=bottom;labelBackgroundColor=default;verticalAlign=top;aspect=fixed;imageAspect=0;image=data:image/png,iVBORw0KGgoAAAANSUhEUgAAAUIAAAGgCAYAAADfIW4VAAAAAXNSR0IArs4c6QAAAARnQU1BAACxjwv8YQUAAAAJcEhZcwAAHYcAAB2HAY/l8WUAACi6SURBVHhe7d0HmFTV3cfxs0vZpQQrRESxYMUSazRiVwTs2EFFAZEek6iJRt9EoybRqMGgggRBRMAebMHeYq+xESWKEUWqgEhZ+ju//96zzC4zW2d2Z+75fp7ncmbutJ1h57fn3P+59xYsW16yLsGJWrukNlrsatK60oul7dpo3bp1a93qVatdSUmJW7FyhVuRaHfo0MHuU1t6LikuLra2NnLlOeTjjz92u+++e3St5vg8yuPzKC/Ez6M0hZwrKCiILpXSteXLl9v6Zs2ald6eWPy9dD15nV1fumx5IstKA00r/GVb9KiK1yVx2Zq1axPr1rk1axSEqxIhuLIsCDskglCPqa0Q/2Mrw+dRHp9HeSF9HhZiyaKc8evV6ufQWgvCaJ3drjbpuhblVMGSpcsSbRRsidaW0isbXNeDmjRu7Bo1buQaFTZyhYUVfiAAaGBrEx20NWvWuNWrV7tViQ6az7BKA/GHJUujnFsfetbTqxCARUVNXdMmTbQGAPKGjVTVQ6wYiIWF6y8rCMtC0C+JG5WqCsEmTZu45nXs5gJAQ1uZ6B2uTfQUE8mXGM0mhaCuVwxBK4CoR5hYioqKCEEAsaARbaPGjcvybX2xd10UhIk7+RBMXLDeoHqCxYnhMADEhWochY0alY14fRgWWggqIXWvKAQ1dm7RrJnWAECsFDVNdPASw2Efhsq+QrsQBaAWrWxGTxBAjKlnqKzzuVc2NPbJ2CiRlE2VmAAQU40TQahiic8+C0IfggWJtglTZAAEoFGjRuuHxvrHeoWJRV3ERk0a250AIM580UTZV7qNUGu1ItFXbNKIIAQQf40TQWgdwbJthElLgQbOABAAn3sWhNo2aAmoFgBCEWVfof6xVCwdIANAUMp6hP4KUQggJMo8C0K7krjApkEAIVL2WdW4bHhMlxBAQEpzL9EjVBoyKAYQIh3JWosNjT0lIwCEwmdeWbEEAEKjc6toKesREogAQmTbCKPLpROqASA0NqE6gd4ggJCVK5YAQIgIQgDBIwgBBI8gBBA8ghBA8AhCAMEjCAEEjyAEEDyCEEDwCEIAwSMIAQSPIAQQPIIQQLCmTp1qS8HcufPWrVm31o5As3btOvfj1ptHdwGAeFu4aJErLCykRwgABCGA4BGEAIJHEAIIHkEIxFiTJk1sQeUIQiDHzJgxw11++eVur732cs2bN7dFl7VOtyHzmD4D5JAxY8a4IUOGuFWrVkVrylPv7tZbb3V9+vSJ1lTO9wbTPV/omD4D5BiFYP/+/S20evbs6V566SVXUlJiiy5rnW7TfXRfZA49QiAHaMi7yy67WNDdeOON7uKLL45uKe+mm25yl1xyifX0Pv30U9e+ffvoltToEVaOHiGQQ0aMGFHWE0wXgqLbfM9Qj0FmEIRADpgyZYq1GvZWxd/HPwZ1x9AYSNLQU020PbCoqCi6ltqKFStccXFxdK3uQh42MzQGKnjooYeiSwgNQQhEhg0bZu3NN99svaT6XHbbbTd77TfffNPayvj76DGpnit58VLd5hcQhICZOXOme+ONN1yLFi3cmWeeGa2tP926dbP2jjvusLYy/j7+Mag9Pz2JIAQSbrnlFmvPOOMM16ZNG7tcnwYOHGjbJydOnGhTZNLRbbqP7qvHIDMIQiDBB+FZZ51lbX3TfEDtMSKaJ3j22We7l19+2QojWnRZ63Sb6L5VzSFE1VR00kLVGMF7+OGHbTi8//77u9deey1a2zDYxa5+UTUGIg3dG0ymgNMeI+r5qRiiINOiy1qn26obgqg+eoQI2qxZs2yI2axZMzdt2jS3xRZbRLfEAz3CytEjBBJ8b1BD47iFoDBFpnoIQgQtOQgRLoIQwZo8ebJbvXq122+//dzRRx8drUWICEIEi94gPIIQQZozZ4575ZVXbA4ZQQiCEEHy+xVrT5K2bdvaZYSLIESQcmnuIBoeQYjgPProozalZJ999nGdO3eO1iJkBCGCQ28QFRGECMrcuXPtAAZNmza17YOAEIQISnJvsF27dnYZYF9jBKVly5Z2WKvHH3/cdenSJVqLUE1+5BFXUFBAECIcCr/u3bu7vffe27311lvRWoSsReIPozA0RjDYkwTpEIQIgookL774oh2WiiBERQQhgjB8+HBrVSTZaqut7DLwwAMPuAcffJBthAhDq1at3PLly91jjz3munbtGq1F6DgwK4LxxBNPWAjutddehCBSIggRexRJUBWCELGmIskLL7zgGjduzC51SIsgRKzddttt1qo3SJEE6RCEiDWGxagOghCxNWXKFLd06VK35557um7dukVrgQ0RhIgtDreF6iIIEUsqkjz33HM2R6xHjx7RWiA1ghCxNGLECGvZkwTVQRAilpJPzgRUhSBE7Dz11FNuyZIlbo899nDHHXdctBZIjyBE7DBlBjXFQRcQKyqS6BD8Ourw9OnT2T6ISnHQBcTSyJEjrWVPEtQEQYhYYViM2iAIERvPPPOMW7x4sdttt93c8ccfH60FqkYQIjbYkwS1RbEEseCLJPLll1+yfRDVQrEEsTJq1ChrKZKgNghCxIIfFrMnCWqDIETe08EVFiWGOB07dnQnnnhitBaoPoIQec/vV0yRBLVFsQR5jSIJ6oJiCWJh9OjR1mrbICGI2iIIkdcokiATCELkreeff94tWLDA7brrru6kk06K1gI1RxAib7FfMTKFYgnyEkUSZALFEuS1MWPGWHvaaacRgqgzghB5iWExMokgRN5RkWT+/Plu5513dieffHK0Fqg9ghB5Z/jw4dayJwkyhWIJ8gpFEmQSxRLkpbFjx1p76qmnEoLIGIIQeYU9SZANBCHyhook8+bNczvttJM75ZRTorVA3RGEyBu33XabtUyZQaZRLEFeoEiCbKBYgrwybtw4a7t3704IIuMIQuQF9iRBNhGEyHkqksyZM8ftsMMONm0GyDSCEDlvxIgR1rInCbKFYglyGkUSZBPFEuSF8ePHW6uDKxCCyBaCEDmNIgnqA0GInKUiyaxZs1yHDh3sAKxApn344Ye2EITIWSNHjrSWIgmy5dhjj3Vdu3alWILcRJEE9aFFy5bW0iNETpowYYK1Ok0nIYhso0eInLTtttu6mTNnukmTJrF9EFnz0ssv2/QZghA5R0WSLl26uO2339599tln0Vog85hHiJw1atQoa5kyg/pCjxA5hSIJ6hM9QuQkbROUE044gRBEvSEIkVOGDRtmbc+ePa0F6gNBiJyhIsk333xjFWMqxahPBCFyxujRo61lTxLUN4olyAkUSdAQKJYgp9x7773WHn/88YQg6h1BiJzgD7d19tlnWwvUJ4IQDU5FkhkzZrhtttmGIgkaBEGIBjdmzBhr2ZMEDYViCRoURRI0pFmzZ1MsQcO77777rNUBMglBNBSCEA3KF0nOPfdca4H6VFxcbAtBiAajIslXX31FkQQNpt/kedYShGgwY8eOtfaMM86wFmgoBCEahIokfhL1oEGDrAUaCkGIBuGLJN26daNIggZHEKJBDB8+3NpevXpZCzQkghD1TkUSzRnceuutKZIgJxCEqHfjxo2zlj1JkCsIQtQrFUkmTpxolwcPHmwt0NAIQtQrXyTp2rUrRRLkDIIQ9erWW2+19rzzzrMWyAUEIeqNiiTTp0+3niBFEuQSghD1Zvz48dayJwlyDUGIeqEiyT333GOXhw4dai2QKwhC1AtfJDnmmGMokiDnEISoF7fffru1vXv3thbIBWtXlbiSkhKCENmnIsnnn3/uttxyS4okyEkEIbJuwoQJ1rInCXJNYZPSA7NyzhJkFeckQS7jBO+oF75I0rlzZ0IQOYsgRFaNHDnS2j59+lgL5CKCEFmjIsm0adNc27ZtKZIgpxGEyBpfJGFPEuQ6iiXICookyAcUS5BVvkhy9NFHE4LIeQQhsmLUqFHW9u3b11oglxGEyDgVST799FO3xRZbUCRBXiAIkXGTJk2ylj1JkC8oliCjKJIgn1AsQVb4IsmRRx5JCCJvEITIqNGjR1vbr18/a4F8QBAiY1QkmTp1qmvTpg1FEuQVghAZ44fFPXr0sBbIFxRLkBEUSZCPXn3tNYolyBzfGzziiCMIQeSNjh072kIQIiPuvPNOay+88EJrgXxCEKLOVCT55JNPXOvWrSmSIC8RhKgzPyzu2bOntUC+oViCOqFIgnzGniXICN8bPOywwwhB5C2CEHUyduxYawcMGGAtkI8IQtSaiiQfffSR22yzzSiSIK8RhKg1Pyw+55xzrAXyFcUS1ApFEsQBxRLUie8NHnrooYQg8h5BiFoZN26ctQMHDrQWyGcEIWpMRZIPPvjAbbrpphRJEAsEIWrMD4vPPfdca4F8R7EENUKRBHFCsQS14nuDhxxyCCGIvFdSUmILQYgaGT9+vLWDBg2yFogDghDVpiLJ+++/7zbZZBOKJIiF4uJiWwhCVJsfFvfq1ctaIC4olqBaKJIgjiiWoEZ8b7BTp06EIGKHIES13HPPPdYOGTLEWiBOCEJUSUWS9957z2200UYUSRBLBCGq5IfF559/vrVA3FAsQaUokiDOKJagWnxv8KCDDiIEEVsEISo1ceJEa4cOHWotEEcEIdJSkeSdd95xrVq1okiCWCMIkZYfFvfu3dtaIK4oliAliiQIAcUSVMr3Bg888EBCELFHECKle++919qLLrrIWiDOCEJsQEWSt956y7Vs2ZIiCWKNA7MiLT8s7tu3r7VA3FEsQTkUSRASiiVIiSIJQkQQohyKJAgRQYgyvkjSokULiiQICkGIMn5YfMEFF1gLhIJiCYyKJNomqN8DiiQIBcUSlKPeoEKQIglCRBDCUCRByAhClBVJmjdvTpEEQSIIUVYk6devn7VAaCiWBE5Fkvbt27s1a9ZQJEFwWrRsaS09wsCpN6gQpEiCEP3fFf/nfnfl7+gRhq5Tp062fXDSpElsH0RwmD6DsiJJcXExIYigEYQB80WS/v37WwuEiqFxoFQk2Xbbbd2qVasokiBYs2bPZmgcMvUGFYIUSQCGxsFiTxLA2fZxLQRhgHyRpKioiCIJkEAQBsgXSQYMGGAtEDqKJYFRkWS77bZzK1eupEiC4DGPMFDqDSoEKZIA6xGEgaFIAmyIIAyIL5I0bdqUIgmQhCAMiC+SDBw40FoApSiWBEJFkg4dOriSkhKKJECEYklg1BtUCFIkATZEEAaCIgmQHkEYAF8kady4MUUSIAWCMAC+SDJ48GBrAZRHsSTmVCTZcccd3bJlyyiSABVQLAmEeoMKQYokQHoEYcxRJAGqxtA4xlQk6dKli2vUqJFNnQFQ3quvvcbQOO58kWTIkCHWAiivY8eOtgTfI2zSpIm1Omx9KlXdnqtUJNlpp53c0qVLKZIAaVAsiTn1BhWCFEmAqhGEMUWRBKg+gjCG/J4kBQUF7EkCVANBGEO+SPLzn//cWgCpabPRlltuSbEkbsUSiiRA9f35T9fbyIkeYcxQJAGqr//A/m7AoAFh9Ah9ry4kkyZNYvsgUAU/fYYgjKl8m/cINISggrAycdtGCKD6mFANABGCEEDwCEIAwSMIAQSPIAQQLB2nUwtBCCB4wQehpsVUNjWmqtsB5K/i4mJb6BECCFY/HXSh/z8IQgAgCAEEa0rUEoQAgkcQAggeQQggWK2jliAEEKz9opYgBBCsr6OWIAQQrI+jliAEEDyCEEDwCEIAYdulPUEIAAQhgKC1aVxEEAIIW5ft2xCEAALWepDrcnArghBAuH5958XuyI04MCuAgP18nyJrCUIAwSMIAQSPIAQQPIIQQPAIQgDBIwgBBI8gBBA8ghBA8AhCAMEjCAEEjyAEEDyCEEDwCEIAwSMIAQSrpKTEFoIQQPAIQgDBWllc7IoTC0EIIFgzopYgBBCsFVFLEAIIVuuoJQgBBGvjqCUIAQSrVdQShACCRxACCB5BCCB4BCGA4BGEAIJHEAIIHkEIIHgEIYDgEYQAgkcQAggeQQggWFOnTrWlYO7ceevWrFvr1q1b59auXedGj7ojugsAxNugwYNdYWEhPUIA2KBH+OPWm0c3AUC8LVy0iB4hAAhBCCB4BCGA4BGEAIJHEAIIHkEIIHgEIYDgEYQAgkcQAgjWylWrE8sqghAACEIAwSMIAQSPIAQQPIIQQPAIQgDBIwgBBI8gBBA8ghBA8AhCAMEjCAEEjyBEnUybNs3tu+++tugykI+CDcKlS5e6W265xZ100knuu+++i9bW3HXXXeeaNGliy1VXXeXWrFkT3VI9ur8e55/jtddei24BGkamvhv5JLggXLx4sbv77rvdwQcf7C655BK3evXq6Ja6e+aZZ9zXX38dXaueL774wj322GPRNaDhZPO7keuCCEL1ut5++233q1/9yu24446ub9++Gf9Lt9dee7m33nrLvfDCC9Gaqulc0v/85z/dvHnz3E477RSthXz55ZfuxhtvdFdeeaVbvnx5tDZecuE91sd3Ix8EEYQrV650Y8eOdcOHD3ebb765/dUbN25cdGtmtGvXzu2www4WbAsXLozWVm727NnuySefdG3btnVbb711tBby+uuvu8svv9wtWLAgWhM/ufAe6+O7kQ+CGRr7/2T98vXo0cMVFRVFt2RGhw4d3IEHHuiee+459/7770drK/fGG2/Y/TUUIQjRULL93cgHhQsWfOcWJLrCCxN/lRYmLsdRs2bN3B/+8Af7T27VqlW0NrM23XRTd+KJJ7offvjBPfjgg1UOddRrnDhxottmm23cySefbIUSoL7Vx3cjlynzlH3BVo2zQT3Co446yj3++OPu448/jtampl6jeoMnnHCC23XXXasMzrlz57rbb7/ddenSxUJXwbn//vu7G264wbYxVqTnGzRokN1PgavtkR9++KG74IIL3I9//GNbr+d6+OGH3YoVK6JHbUiP+/TTT92ll17qdtttN3ucWl2vTmFIG9xVCe/fv3/Z4/X6+uK9+OKLbu3atdE9y//M5513nq37+9//bl9QrdOSqqqujfyTJk2yPyj+vWkzhbZ3Pfvss2nfn55L9z3uuONsu9hXX31ln48+X1VM9f/Tvn17t8cee7ipU6dGj9pQcuVfw8zK1Pd7RPUUtvhRK6elecsf2YLa22KLLVzXrl3drFmz3BNPPJF2Ko1+aX2lWEFYUFBgQZfOlClT7Mt40UUXueeff962Kaq48u9//9tdccUV7rTTTrPqczoKs3vvvdcdfvjh9rrbbrutrddznXnmme5vf/tbygqh1o0YMcIddNBBbtiwYTZPcPfdd7efX9fPOuusSgNCX95+/fq5ww47zI0ZM8Y+l3322cetWrXKes2nnHKKvXa6z6kqel8KjSOOOML16tXLPvMf/ehH7qc//amFmoZ73bp1cwMGDEj5xyLZf//7X9ezZ0/bPqZevd67PuPOnTvbH4I333wzuueGvvnmG/ssd9llF3fAAQdEazMjk+8RGypsXFS6RNeRAQq0Y445xr4QlU2lUaDor7h6j3vvvXe0Nj0No7faaivr2S1atMh98skntuh5jj32WPuijB8/Pm2g6MujQLvvvvvczJkz7UutkLr55pvtS/WnP/3Jvfzyy9G9S+kL+MADD1hFUz2ku+66yx6jnqxCQ6+98847u8GDB1v1MxUFngJevcH//Oc/bv78+fbaCsRRo0bZfe6880732Wef2WUN09Tr1eP8BnsFqV5X67QolL1//etfFg56ffVQZ8yY4T7//HP36quvWs9Ln7Huf88999jwT/PjUlGwjx492rbV6jn0OvrMtN1W/0eiz0cBmcp7771n29eOPvpo21ZcmYZ6j6gcQZhh6kVo+JJuKo3C6qGHHrJehkJsk002iW5JT8OzRx991J1++umuRYsW0VrntttuO/eb3/zGwkwBpS9TKvpZrr32WuvdNG7c2NbpC6lhoHp1+oKrR5McpPrCjRw50i5fc8011lvSY0SBr9dWpVE92nQBUVhY6H75y19ar0/DOF0XbYzX62rR51DVZoRU9MdB4a5ekSqvCgH1lD29T/VE77jjDus9TZgwIW2v7qWXXrL7/+53vyv3HKKQ0eNV2Prf//4XrV1PYaQ/evo/0GeRyUJDJt8jKkcQZph+OVU00S9sqqk06iXqi6NhqnqP1aGeiqbnpKKKn0JJw7N0QyN9QVMN2RRs+jlEUzg0lcLT9kT1NLt3727vR+FXkUJZvRWFQCoKefWSfAAm02v796QeZk2ph/nUU09Zj+2cc84pC/iK1GvVHxCFtf4/kt+jp5//jDPOKPdHxlOvUH9A1AvTH4uK1FNTr626vfuayOR7ROUIwizo2LGjfXm0sf2dd96J1pZSL1E9NG2g33LLLaO1VdNQVRv0FU7aIH/ZZZfZ9kj1KhValdF2uXQ9FQ25Rb2OZcuW2WW9lp8CpAJQqoDwfBBXRl9M9fz0JdUEYn2pFe4qMNSWNg3oi7/ffvu5Nm3aRGs3pABXb0kUuKmGjtrumW5I26hRI/u/0h+2V155ZYM/bBqi6r3p/VSnd18TmXyPqBxBmAUKjuOPP95+iVWk8L+Y2jam7XTahqjeYKpeVirahqYei4oxGgpdeOGF7qabbrJA3WyzzdL2yDx9mWuipKTEJnuLXrO2tO1Nwzb9YVCxR5VYDfH0GShQ6rI3jS8uafpRVe9PYb3nnntaASS5Su3p82vZsmV0bUMa1qtHrWGneoae3sPTTz9t/5/6w5dpmXyPqBxBmCWdOnWyIamGwb6y6idQV2ejuqfeRp8+fdzkyZNtm5qm5mg4pi+hhrPjx4+vskdWFxtvvHF0qWb0hdS2wSFDhlhvVD1B9Y715dZ2NfV2tN0xH6inp563/pDp/1M9ZlEoKhxr8v+J3EQQZomGMgpCP5Xm+++/txCryUZ1feE0z089v6uvvtqGxJr7p+FsZT2YulJP1fdAUhUIkqnX54fUyaZPn269YfVSVBzS1J+f/OQnFirptnXVhH//+nx9MKWjarU2H+izr+1ra/qKhp/aNKFNFCos6f91yZIlGS+SePX9HkNGEGaR//JoI7t6ElpUUdY2n+rQEFVFEFFRI9UvuAI20/PHiouLbTgomhqisEtHvbzk4aLnv5gaUmpoV5GeU/epLQ219aVXMPlhfCoKEP0hEQ1ha/sHRNtzf/azn9nr6X2pZ6sevqrKCvtsqO/3GDKCMIt8xVFzzK6//nr7y67eQ212ZUp1RBBte7z77rvteTNNX3AVCDQBO92UDM1J1NzGylSsRnt6Tj+pvDZUoVU1VZsaNIdOQ/FUtH1V8yEVxvrsa7q91GvatKkNj0VzCpM3c2g7bTbU93sMGUGYRfqF1C+mfkG1F4h+qVWFrS71zHxVV/PJNJ3CD5EUfppXpi9kxblvmaBKqqbOqJqsuYDqzfovojbGv/vuuzYRWENd33tM5jfeq5igsNZ2QdFz6Lk0UXujjTaydalo7xf1hhSYqfaa0esOHTrUPltNCNccwOQ/CHodzQ/UZG71ltRqaF4XPphUKdY225oWvSrKxfcYKoIwyxQoCkPRdJeaVGH1BVO1WMNrhYeCRc+nfXY1yfqjjz6yL0fr1q2jR2SO5vn99re/td33NBRUb0jrNNRV8CrQVSDQNJ7mzZtHj1pPt6kYosq5jnWnOYN6rLadarc+FX5UWU9H+19re6heWwGk/ar1vjVM9A455BArwujn+ctf/mKfiUJZhSr9rOqt6TPS9lUVbeq67UzBpODTPtLqCde1SJKL7zFUBGGWaSO6glABVpveg37p1fvQKQE03cSfF0TXtYuWJtNmi3bu165n6tHpC6vei+ap6QurKTD6gqbbHqXesO9JatqM6LFHHnmkFYC0b6yGm+kodP76179aiPoetSrY+hk8fZba5qpg0sEnDj30UOvBqnekA+UqyBUqmrKj0MgEBZB6gqL5hXUpkuTqewxRwdczv123JjHU0ZBLQ5727ao/yRcIjXpf6umqh6sqfjY2S6D+TPvif7bnEz1CoJq0Te7++++3uZ013cyB3EYQAtWkYlUmiiTIPQQhUA3am0eVbvUGzz///Kxum0X9IwiBNDR3UwURHQ1ahSodNEJFHi3M1YsXghBIQxvRNZdTNIVJB5FV5bayo/EgP1E1BhAsqsYAECEIAQSPIAQQPIIQQPAIQgDBIwgBBI8gBBA8ghBA8AhCAMEjCFHvdHBZnZ/57LPPzviJpxqKTkUwaNAg2y85+QjTyA8EYUzoWHk6o9zvf/97d/DBB9sXUouOcK0DieqI0osXL47u3bD0cyosdGw/HbUaaGgEYQx88MEHdm4RnW7yj3/8Y7mzzumw7jrD2TnnnGO361zDCs2GpNOZ6ix5Oh/LjjvuGK0FGg5BmOd0aslTTz3VTjauQ0XpPCLqZan3p+Gaznqm02bqcFIakp577rl2noxshaHOV/zkk0+63r17pz0NqH5OnX1twoQJWTnxFFBTBGEe00FCddIe9frU49P5by+66CI7TaRO5KMzmum0mjqs/IMPPuhGjRplJwbSqSHVS/SnBs2kJUuWuOHDh9t5eNesWROtBXIbQZindHJ3nd5RZzM78cQT3Z///OdKz6GhUFRvUMGpU2z6niMAgjBvadj5j3/8w04DqVM66tSbVVEYnnfeeXZ6UZ1LV0dczkavEMg3BGEe0pBT2wbVs/PnTK4unWC9W7dudvmNN94oV0lWJVeVZm1P1GHqtY1RxRWd01jrN910UyvKPPXUU7YtMJl/rHqlTz/9tK3TFBlfvdbUEj2faFvlvvvuW/Y6qWgbpp6zf//+dtJz//o6KbzOtZzuccmH19fjdbBhnRNYP7ce79+D1um2VLT+k08+cZdeeqmdwzn5tXVO5orvHfmPIMxD2g6n7YOiL2pNTzK+5557lp2sfc6cOdHa8rS+T58+NpzWicf32WcfC95HHnnEAkFDbA3Ps2H27NmuX79+FqRjxoyxgs8BBxxggaQQHjhwoJ1FTkFeGYXpTTfd5Dp37mzvQb1n/x5OOeUUm1JUsUe8cuVKm4Kkk6cPGzas7L371z7zzDOtB+5DHfFAEOahRYsWuW+//dYuqzBSU5tssonbbrvt7MxsCxcujNaup+e/9tprbSit3puCSUNxBfBdd91lgaKCiELKB4mmw6xatcruq5ASVYa1Tsvtt99uBZyqKIAHDx5sxRb17BR28+fPd6+88oo99+eff+4uuOACG9pffPHFZX8QUtHPp59Bz6H38f7777u5c+e6X//61xaImmqkU3QmU29bvUr1GvWeFXhqFcYKUL13ndj99ddfjx6BOCAI85CGZuqNaUi82WabRWurT0GoaSsKg1SVXRVg1MtU2Ckw/fl7tU57g9x8883Wo1TlecaMGXZbJihU77//fvfoo49aAeiOO+6wIbTOKSH6ORREKvToTHL6OTV0T1edVo9X901+Dr13Vda1SUEh+uqrr9p6T6+h11bgqyeoPwaix2uTgnrJ+tzefvttW494IAjzmL6c2TjJuEJOQ+KNN944WlPeIYcc4o466ijrFWWy8qyemIafen31CtMVgHQWuV69erm2bdu6559/3n3zzTfRLeWdfvrpKc8/rO2kGmqLeojJdNY6TTdKtblBn7XvgWvKEsPj+CAI85iGhxo21pSGw9rHV0HiT1eZTD2hXXbZJbq2IQXkHnvsYZc1vM4UDT+/+OKLKl9ftt9+e/sZPv74Yxsyp6KeYLo/FFtvvbW1M2fOTBlo2r6osHv22WfdLbfc4vr27euOOOIIN2TIkOgeiBOCMA9pOOznDKbrDVVGQagAU+8m1dBavaHKCjAKF3+C84o9qrrQkFPbABVS6hVWpnnz5mXFj3RD49qchF0VY01LUhFK+2lrOHzJJZe4u+++23399df2mogfgjAPKSR23XVXu6zhaU2nc6gnqQDRfr7a86QuWrZsGV3Kf9pGqUqyen8qRql6rCKNLmubrEJaU2oQPwRhHmratKnr1KmTXdbQTRXR6lIPbsqUKXZZR6nR9raaKikpKRuOanidKRqm6/k0RNZrVGbZsmU2dE03vK8NbaPU/s8KdxVhrrzyStuWqMKSPnPEF0GYpw4//HCb4qHK52233VatOX3a7jVu3Dg7CIMe76e5VDR9+vSy6TmpKATfe+89Gzr6nmkmKNQ6duxo1eCPPvooWpuafkbdR/fPVBgvWLDAQljbHjXXsiL1GDO5KQC5gyDMU5oGoonF2mZ15513ussuu8y+yOlo+KzpKDrggobWQ4cOde3atYtuLU9DQE1jSXWEGq3TtBmFleYOqmiRKdruqYqthu0K93STvRX62man0NJcw8r2sa4Nvb7mTFb02Wef2XtH/BCEeUzTWK677jrb/WvkyJEWCpqIrAKKAkuLwkQ9QO1J8Ytf/MIep70tjj32WLucinpY2pXsiiuusLDxtDve9ddfb2GqANa2tIpDa1/EkBdeeKFG2y9VhOnRo4fN49NcQu1e9+6775btCqcemYbDKl7o/ep+OqZhpqYQ6XPUe9d2Vx2px0821+vr59DrZuq1kFsIwjymL6WCYPLkyXawUx35uXfv3jYJWntxaNlqq60sBLX/r+7z0EMPufPPP79sonAqGhpec8017vHHH3ft27e3fX21qMJ81VVXWWDoyDc60GtFek316tTr1H31eG2L1LzA6sy709xBha1CXcdYPPDAA62go+dQz0/Dce1rfPLJJ9vE7uocbKK69DqaP6mf/YYbbiibb6hw1M+x99572/xFxA9BmOcUhgokTSzW0WT0RdV+sp4ua51u0300F646vRrt56vHaC8M9epUkNFzXX311fY83bt3T/s82hdZQ9cjjzzShuuadK0Qq+50FoWdqrcahmo7qPbz1W5uCii9FxV71PPNxlQW/WHRARl0lB4FvraF6n3r51HxJE5VcqxX8PXMb9etSXT9NezQEKB9uy2jmxAaHa1FAagiioKsNrvvAflk2hf/sz206BECCB5BCCB4BCGA4BGEAIJnQcjcKAAhs6rxWlWM16xxaqkaAwiFVY0THcGyoTG9QgAhUvYlwrB8APrdmQAgzjR32itXLFEo6kQ7ABB3OqCv7wgWKhOTe4UlJZyzFUD8JXf6SofGiS6iWi3LqjggJgDEgYLQ517Z9Bk/Wl61erVbuoyzcwGIrxUrVzodY0GUfWXFEktGu+Tc4h9+iC4BQPysiEa+yrzSHmHSsNhuSLSrE13G76KDUgJAnCxZurRcoURNaY9Qi0rJiVbX1yWWpUuXuUWLvrc7AkAc6KRfKxPDYp91PvssCMstiTv7dvGSJW5+JefBAIB88UMiz0pWrCiXcT73ChP/lq4oTFzUvaPrLrqunuG3s+dYCwD5RkdYX/T999YT3DDrtGkwcX323Hnr7OjUiWXd2rXlWu1lUqDricfosg6Z3rx5M1fctKkrKiqyI7sCQC5RnmlqjGbAKPy0PVBZ5cPPjkitEEy03y1YVBqEc+bNt4MuVAxBtT4AfRjqBWxRikZPqute8uVsKSlJjO8TNt90Y2sBhE1DW88uR3nlh722lN5YFogKQYXh/AXfl94+d34iCNeu7xFa4FUIQwu46LL4QFwv6XLiSZNlOhwJQiBcFnTJkvMl6TYfgHZZiwJQ66LLvkc4f/7C0s2Ac+d/l8iq0gS1AIxCUC9Q1iYFonqHUvpv6Tov06GXSskKghDAesnhmBx+RoEXBaBtyktcVgj61nqEPgh1f4XYBsEXtbqu9bYuCrvkUPTKX8uOsh7hZgQhgKTQ8xR8Cju7WBqCFnwKPF2MWl2f+92i0t7hvO8WJDLNIk5ZlzoME9ftcnSblP4brUtqs80HYWuCEEAkOfistX8TFHJa7GKiTQpB3TY/EYS2fv6ChYkM89v8SsNQlyr2An0g6sHr7283lrYRf59sIQgBmETW+OArE123cNPl6D4WgGqj+/je4TwLwgL3/35r2A/ZmQa8AAAAAElFTkSuQmCC;" parent="CMUXqy-xraMfQoJJQTi_-4" vertex="1">
          <mxGeometry x="20" y="275" width="130" height="167.95" as="geometry" />
        </mxCell>
        <mxCell id="CMUXqy-xraMfQoJJQTi_-7" value="" style="shape=image;verticalLabelPosition=bottom;labelBackgroundColor=default;verticalAlign=top;aspect=fixed;imageAspect=0;image=data:image/png,iVBORw0KGgoAAAANSUhEUgAAATUAAAGZCAYAAADowaaRAAAAAXNSR0IArs4c6QAAAARnQU1BAACxjwv8YQUAAAAJcEhZcwAAHYcAAB2HAY/l8WUAACmCSURBVHhe7d0H1BTV2cDxAVEUiV1i712xRRMbosbeW2wR7L0djXqS+GnUnOiJSRRFFAlIsKHGXmMsiS0xsaTYYq9YUVFRVEQ+/te5uLzO7tv2fXf37v93zjIvs33KM8+9z52dHhMmTJg622yzZVOnTs2mZrlpf0fML/X4449nq6yySv6/yiZNmhSmvH5btPfxd999d7bTTjuFv2+99dZswIAB4e9K+Pz9+/fP/1dZV3/+9j4efv7y/Pyta6TP36NHj/yvbzzxxBPffP78fv6Nj2Xak6D1FQGN21dfhdtX+W0K0/x+bvH/4bFtuEVF9xXdoqL7yt34EvELFd3f8tbWx3GLiu4rukVF9xXdoqL7yt3a8/io6L6iW1R0X9EtKrqv3K09j4+K7iu6RUX3Fd2iovvK3drz+KjovqJbVHRf0S0quq/crT2Pj4ruK7pFRfcV3aKi+7gRb1rGoHBj3rRbjFc8NsYl5oegNj2QldwZ54f7pkwJtzg/Pi6+aa1ufIYQrafd6uHzePPmrfO3GF+mx5sYf6bdF4NYaRyaHuCYPy1I9hg/fvzUWUn/ps1Az549p9+K0j9JqhUCF2K2xi2gxRYm06YhqM06azZTr15Zr5lm+voBktQgvpyWxU358suv/zMtqPXsNfPMWe/evQ1okhoSsYsY1mNa65JmaI/Jkyd/02MnSQ3s9XHjDGqS0tIzn0pSEgxqkpJiUJOUFIOapKQY1CQlxaAmKSkGNUlJMahJSopBTVJSDGqSkmJQk5QUg5qkpBjUJCXFoCYpKQY1SUkxqElKikFNUlIMapKSYlCTlBSDmqSkGNQkJcWgJikpBjVJSTGoSUqKQU1SUgxqkpJiUJOUFIOapKQY1CQlxaAmKSkGNUlJMahJSopBTVJSDGqSkmJQk5QUg5qUqEsuuSQ74IAD8v81D4OaVMdmnnnmcGsPgtkyyywTAhp/33vvvfk9zcGgJiWiNJi98sor2eKLL56NGjUqGzhwYP6I5tBj8uTJU/O/JdWZmKVN20/DtAjB7PTTTw+BDASzU045JRs8eHD4f7MxqEl1rFJQM5gVM6hJdawoqBnMKjOoSXWsNKgZzNrGoCbVsRjUCGAGs7YxqKmpxCDRTEqbrs3AIR1qGtdee23+l1JmUFPTGDJkSJieffbZIXtphFtEkzPib8afFT2+6NZsDGpqCuPGjcseeuihbPbZZ8923333fG7jeP7550Mgi31rDLBloC3FA83IoKamcO6554bpbrvtlvXr1y/83WgoDBjcWmehQE2hd+/e2VdffZXdcccd2SabbJLPrX8Ovm0/MzUl77rrrgsBbe21126ogNYaM7diBjUlLzY999hjjzBNjcFtRjY/lbQ333wzW2yxxbLZZpste/bZZ7MFFlggv6cxVGp+ltOyWXrXXXc11S91mKkpaTFLo+LZaAENBLP2BDSUZm787U8PSQkhQ/vyyy+z22+/Pdt0003zuUqZmZqSdcMNN4SAttZaaxnQmohBTckqbXqqedj8VJLefvvtbJFFFslmnXXWUCBYcMEF83uUOjM1JSme58kZBAa05mKmpiT16dMnVA1vu+22bLPNNsvnqhmYqSk5N910Uwhoa665pgGtCRnUlJzUzyBQZTY/lZR33nknW3jhhbNZZpklFAj4W83FTE1JKc3SDGjNyUxNSenbt2/2+eefZ7fccku2xRZb5HPVTMzUlAwCGQFtjTXWMKA1MYOakuEZBILNTyUhFgj4qR4KBJxNoOZkpqYkDB06NEwpEBjQmpuZmpIwxxxzZJMmTcpuvvnmbMstt8znqhmZqanh3XrrrSGgrb766gY0GdTU+CwQqJTNTzW0WCDo1atX9txzz9mfJjM1NbZhw4aFKVmaAU0wU1NDm2uuubJPPvkk/DLHVlttlc9VMzNTU8PiYioEtFVXXdWApukMampY/sSQitj8VEOKBYKePXtmL7zwgv1pms5MTQ3pwgsvDFPPIFBLZmpqSHPPPXc2ceLEcG3PbbbZJp8rmampAd1xxx0hoPXv39+Apm8xqKnheAaBKrH5qYYSCwQ9evTIXnzxRfvT9C1mamoow4cPD1PPIFA5ZmpqKPPOO2/20UcfZddff3227bbb5nOlb5ipqWHceeedIaCtvPLKBjSVZVBTw/AMArWFzU81hFggwEsvvWR/msoyU1NDGDFiRJhaIFBrDGpqCLHpudtuu4WpVI5BTXXv7rvvziZMmJCttNJK2fbbb5/PlYoZ1FT3hgwZEqYWCNQWFgpU1ywQqL3M1FTXRo4cGab0pRnQ1BYGNdU1CwRqL4Oa6tY999yTvf/++9mKK66Y7bDDDvlcqTKDmuqWPzGkjrBQoLpkgUAdZaamunTxxReH6a677mpAU7sY1FSXbHqqowxqqjsUCMaPH58tv/zy2Y477pjPldrGoKa6M3To0DD1DAJ1hIUC1RULBOosMzXVldGjR4fpLrvsYkBThxjUVFc8g0CdZVBT3aBA8O6772bLLbdctvPOO+dzpfYxqKluDBs2LEwdxqHOsFCgumCBQNVipqa6MGbMmDDdaaedDGjqFIOa6oJnEKhaDGqqOQoEb7/9drbMMsuEoRxSZxjUVHMXXnhhmHoGgarBQoFqygKBqs1MTTV16aWXhiknrhvQVA0GNdWUBQJVm0FNNUOB4M0338yWXnrp8GOQUjUY1FQzw4cPD1MLBKomCwWqCQsE6ipmaqqJyy+/PEy59J0BTdVkUFNNxAKBTU9Vm0FN3Y4Cwbhx47KlllrKAoGqzqCmbjdixIgwdRiHuoKFAnUrCwTqamZq6lZjx44N0+22286Api5hUFO3GjJkSJjutddeYSpVm0FN3YYCweuvv54tscQSFgjUZQxq6jYjR44MU4dxqCtZKFC3sECg7mKmpm5x5ZVXhum2225rQFOXMqipW8QzCH784x+HqdRVbH6qy1Eg2GKLLbLFF188e/755/O5UtcwU1OXu/jii8PUMwjUHczU1KUsEKi7mampS1111VVhuvXWWxvQ1C0MaupSsUAwaNCgMJW6ms1PdRkLBKoFMzV1mdGjR4fpbrvtFqZSdzBTU5ewQKBaMVNTl4gFgq222sqApm5lUFOXGDp0aJgOHjw4TKXuYvNTVRcLBIsuumj24osv5nOl7mGmpqobM2ZMmHoGgWrBTE1VZYFAtWampqqKBYItt9zSgKaaMKipqs4///ww3WeffcJU6m42P1U1sUBAhkbTU6oFMzVVzaWXXhqmnkGgWjJTU1VYIFC9MFNTVcQCweabb25AU00Z1FQVF1xwQZjut99+YSrVis1PdVosECy00ELZK6+8ks+VasNMTZ12+eWXh6lnEKgemKmpUywQqN6YqalTYoFgs802M6CpLhjU1CnDhw8P0/333z9MpVqz+akOiwWCBRdcMHv11VfzuVJtmampw2KBwDMIVE/M1NQhFghUr8zU1CGxQLDpppsa0FRXDGrqkBEjRoTpAQccEKZSvbD5qXaLBYIFFlgge+211/K5Un0wU1O7jR07Nkw9g0D1yExN7WKBQPXOTE3tEgsEm2yyiQFNdcmgpnYZOXJkmB500EFhKtUbm59qs1gg6NevXzZu3Lh8rlRfzNTUZrHpueeee4apVI/M1NQmFgjUKMzU1CYxS9t4440NaKprBjW1yahRo8L04IMPDlOpXtn8VKtigWD++efP3njjjXyuVJ/M1NSq2PTca6+9wlSqZ2ZqqsgCgRqNmZoqilnawIEDDWhqCAY1VTR69OgwPfTQQ8NUqnc2P1VWLBDMO++82VtvvZXPleqbmZrKik3PvffeO0ylRmCmpkIWCNSozNRUKGZpG264oQFNDcWgpkJjxowJ08MOOyxMpUZh81PfEgsE88wzT/b222/nc6XGYKamb4lNz0GDBoWp1EjM1DQDCwRqdGZqmkHM0gYMGGBAU0MyqGkGl156aZgefvjhYSo1Gpufmi4WCOaee+7QDJUakZmapotNz8GDB4ep1IjM1BRYIFAqzNQUxCxt/fXXN6CpoRnUFFx22WVheuSRR4ap1Khsfmp6gWDOOefMxo8fn8+VGpOZmqY3Pffdd98wlRqZmVqTs0Cg1JipNbmYpa233noGNCXBoNbkrrjiijA96qijwlRqdDY/m1gsEMwxxxzZe++9l8+VGpuZWhOLTc/99tsvTKUUmKk1KQsESpWZWpOKWdo666xjQFNSDGpN6sorrwzTY445JkylVNj8bEKxQNC3b9/sgw8+yOdKaTBTa0Kx6XnAAQeEqZQSM7UmY4FAqTNTazIWCJQ6g1qTsUCg1Nn8bCKxQDD77LNnEyZMyOdKaTFTayKx6XnggQeGqZQiM7UmQYGAPrSpU6daIFDSzNSaBFkaAc0CgVJnUGsSFgjULGx+NoFYIOjTp0/24Ycf5nOlNJmpNYFYIDjooIPCVEqZmVriKBAstthi2ZQpUywQqCmYqSWOLI2AZoFAzcKgljgLBGo2Nj8TFgsEs846a/bxxx/nc6W0maklLBYIDjnkkDCVmoGZWqIoECyxxBLZtPVrgUBNxUwtUWRpBDQLBGo2BrVEWSBQs7L5maBYIOjdu3c2ceLEfK7UHMzUEhQLBIceemiYSs3ETC0xFAiWXHLJ7IsvvrBAoKZkppYYsjQCmgUCNSuDWmIsEKjZ2fxMSCwQzDLLLNknn3ySz5Wai5laQmKB4LDDDgtTqRmZqSWCAsHSSy+dffbZZxYI1NTM1BJBlkZAs0CgZmdQS4QFAulrNj8TEAsEvXr1yiZNmpTPlZqTmVoCYoHgiCOOCFOpmZmpNTgKBMsuu2z26aefWiCQpjFTa3BkaQQ0CwTS1wxqDc4CgTQjm58NLBYIZppppjCcQ5KZWkOLBYIjjzwyTCU1QaY288wzh+m07xmmLbV2f72iQLDccsuFczwtEEjfMFNrUGRpBDQLBNKMDGoNygKBVMzmZwM2P2OBoEePHuEHISV9w0ytAcUCwdFHHx2mkr5hptZgmZoFAqkyM7UGY4FAqiyJTC1mW81k7Nix2a677pr/T1JkUGtQjdJclrqbfWoN1qcmqTL71CQlxaAmKSkGNUlJMahJSopBTVJSDGqSkpL8kA5JzcVMTVJSDGqSkmJQk5QUg5qkpBjUJCXFoCYpKQY1SUkxqElKikFNUlIMapKSYlCTlBSDmqSkGNQkJcWgJikpBjVJSTGoSUqKQU1SUgxqkpJiUJOUFIOapKQY1CQlxaAmKSkGNUlJMahJSopBTVJSDGqSkmJQk5QUg5qkpBjUJCXFoCYpKQY1SUkxqElKikFNUlIMapKSYlCTlBSDmqSkGNQkJcWgJikpBjVJSTGoSUqKQU1SUgxqkpJiUJOUFIOapKQY1CQlxaAmKSkGNUlJMahJSopBTVJSDGqSktLj1FNPnZr/LUkNz0xNUlJ6TJ482UxNUjLM1CQlxaAmKSkGNUlJMahJSopBTVJSDGqSkmJQk5QUg5qkpBjUJCXFoCYpKQY1SUkxqElKikFNUlIMapKSYlCTlBSDmqSkGNQkJcWgJikpBjVJSTGoSUqKQa0Bvffee9k222yTzTzzzNnf/va3fK4kdGtQ++STT7Jzzz0322GHHcKO2VG/+tWvwg7N7dRTT82mTJmS39M2PJ7nxdcwMKg7Pfvss9n3vve9sO31798/e+qpp/J72o7n8Fxe4/DDD88mTZqU36NuCWofffRRdskll2QbbLBBdvzxx2dffvllfk/n3Xnnndlrr72W/69tXnjhhezmm2/O/yfVzv/+97/sz3/+czZ1atuvVMlBme2X5+rbuiyoseAffvjh7LjjjsuWXXbZ7IADDuhUdlZk9dVXz/75z39mf/nLX/I5rWPjue2227J33303W2655fK5wscff5xdeeWV2YEHHpg9//zz+dy0vPTSS9lvf/vb7P/+7/9qnt0suOCCYRv805/+lL311lv53NZxEL/pppvCc3kNzajLgtoXX3yRjR49Ohs6dGg233zzhUxtzJgx+b3VsfDCC2fLLLNMCFIffPBBPrcyNh42IjaGRRddNJ8rvPnmm9lvfvOb7F//+lf21Vdf5XPT8ve//z372c9+lr3//vv5nNqZf/75s8UXXzy7++67s4ceeiif2zoO4hzMOaizzjSjLm1+xmDGhrTnnntmvXv3zu+pjqWXXjpbZ511wkbBjtgWbDw8nqawQU21tvnmm4fpLbfcEvqcW8PBm4P4CiusELZhfVuXBbXZZpstO/3000Mwm2OOOfK51TXPPPNk22+/fWg2XXPNNa02J9ggrrjiinB03HHHHUMnq1RLHJTZFukbfuyxx/K55f31r3/NbrjhhmyrrbYKgU3f1i2Fgq7ERvHDH/4wHOmeeOKJfG4xsjmytO222y5bccUVWw2CFDjGjh0bNrrvfve7IQiuvPLK2QknnJC98sor+aNmRNAsrUjRd3fWWWeF58Xn83/mV/Lqq69mZ5xxRrb22muH59HMPvjgg1v9jqDp+OSTT4bPGZ/PAWDbbbfNrrvuuuzzzz/PH/m1+Jn5bP/973/DLX5eblSbW6LYQ9X4kEMOmf7Y+B4jR44s23/acjhKrIjz/Xg+O+z6668f/r7nnnvyZxWje4PXaa0CznpgffDYffbZJ8z7/e9/Hw62zIufpaWi9c/npH/4rrvu+tZy7Ai+59Zbbx2akUXrphTLiu2crpMf/ehHrVb9i9YR34NEg+BY1MXA43kc64h1xXtedNFFYZ3E70+xr+X2//LLL1d9vXVUwwe1BRZYINtyyy3DRnHrrbeWXUhsLLHiSVDr0aNH9s4774T/F/nPf/6TrbvuutngwYPD637nO9/JVllllVCOHzJkSNgQi3aEUk8//XTYIU466aSsb9++YYXzfP5/6KGHZm+//Xb+yG9QyLj++uuzTTbZJPvFL36R/fvf/w4dwjTd2Rh4vUqFEfoyeR79LXxOnr/mmmuGjeiOO+7Idt999+znP/95pzrJ6Zc86KCDsoEDB2YXX3xxWPY/+MEPpr/HYYcdFppVrfUTffrpp+GzxJ2EjJsui8022yz8fd9995Vdnx9++GF4L9bLhhtumM0000z5PZ3HOmDdbrzxxjOs/+9///vhc9KlQqbEOmzt4NQWvA+vTaCkMl8OwzjI6Fg+K620UsXtl4Dcch2xHUyePDm0anbeeefsvPPOqxhU2D75/kceeWRYV7Rw+P4chPbaa68Zqq905dR6vUUNH9QITuxApOKVhncQTNhoyOrWWGONfG55HKEIhKxANh6qgWR6b7zxRjhS83qjRo0q2w/y3HPPZSeeeGK2yy67hCPeP/7xj7BhEZBWXXXVUL268MILv7Xy77///pBh0ZH961//OjyXrIsb2dtuu+0WKsr0Uxbh9XjOrrvuGt6T4BXf+8YbbwwbJsGx9PlsoGzsvAefjRt/M48bQThiQz/iiCOyyy67LBzNCVzjx4/PHnjggRDsWE5UT8n2fvKTn1QcdsARnZ2Y12BZ8170E7E+2eh5zaLAD5Y/gact65OukAsuuCC8fixWscOz48fvuN5664X5YB2wM1MpZV2w3PleDz74YFiebEc8nmVAF0u5baCtYkCoNLyDrItthvVINjz77LPn9xTjO7HdkqVxcGUdxe1gxIgR4TFsv88880z4uyXWJQccMjO+P9s+2zTrlc9KoYKiUvzuBKdqr7eOavigBjIZMphywzvY0a+99tqw0ZBhzT333Pk95c0555xhI6LZUvp4KlYEFXZ8moLlSvGk91tssUV29NFHT+9T7NmzZ9hp2dnRcuXT50eg42hIha70uaDZwU5EhsARsQhBnn7GP/zhD+HI3KtXrzCf9ya72H///cNzGW7TXuxsV199dVguvAfNEgaR8trgvQmaDJngM7I+GCJS7qjNEZvHlr4G6Bpgo7/33nsLB6byOTiAsYO2dX22Vct1wPIuHTbB8iT74buTXV1++eUhWHQGAYGDHwfmcsM7CAY0zVkudLm0huV57LHHhmyMwBSXLxn/HnvsEW7sD+W6MwheBNtTTjll+vdn/bJuWC7MIzi9+OKL4T7Ucr2VSiKosaGxk7Ggi4Z3kL2xMDfaaKPp1abW0AdBil9k3nnnDc1eOnbLHZHY4On3iEGlFE01Ag6fc+LEifncr8dQkQ2wYey9996Fz2UeWRhBtciss84amuNFlWY2yiWWWCL8zU7b3iYoGWBsOpCt0T9ThCyCTIf1QTb2+uuv5/fMiG4AxjC2xMbORg92cprUpdjpaeKwjGm6VRNZDd+x0jrA8ssvH9YvBwi2uZafsb04MG+66aaFwzsIBmRwBCHek22vNSxDXq/0YBGRuTIcCmRfRVh3rMOijJBuGLIsstfSg2st11upJIIaCECkxWwUjzzySD73a3FcD82lhRZaKJ/bNvQB8Hp0GHPU4hQv+gLYyCphxffr1y//34zmmmuu0HfE0ZBmQUSTj6PYWmutVfa5iEG1EporBC6aSjShaTKzIdE/0lF8NpqLBOTWKm9LLbVUOI2nUjZLhlauTyX2M9FMpslfiuXEeqbPs73rszW8Njtqa+uAAwSfDwSGzjZBOQgR5Dlg0PdL0zhi+REkeD+CLe/dVgQWgiGBl6yYQE1rgU76Stif4gGwJQ6cMShSIChVq/VWKpmgxhGFvgY2SJo8cSNjR7zqqqvCTkiW1tYNgg2JJtSSSy45vWBw5plnho0jdvpXws7ano0P9F2AJm5HO1CpaFFooOpJs4MmJx3xdG6TsdI87CiWLUdnmiXsfJX06dMnvBfPKdf8JDiXQ6bAzsHBqHQMIn1vseOerGCWWWbJ76mO2PnOZ29tHXBgImPmAFKNwcpkPwQtmpmlB2YCGsGAg3Zbx1aynGgiE5w4uHAwptnIvkALgcywEr57UZbXmlqtt1LJBDVQUuZoR1MztunjYFtScQbrtkXsDKcjlYBGkORoTFbFkY/AxpG8q7QWMMuhmcJGS1bGUZIqKP12/E2QJyDR8d0ISjMX1mdsKnOQYodh5++qjuZaofm20047hQMB2RqBgADE9kawoKXRloMdQZa+NLJyliMZGkGSgM1yJGOiONQV6mG9JRXUaC6wQFmAHBVoOjKuhwXM/KJ+piIEQTrDCQ50jNOJSypO8aC92Vd7xP4b+tYIUOWwsXNriT4vOq7JJAnEnN9I/x2ZXzWOjDQ72LlYvp999lk+txhDAGj+8nie1xExc6EjPla1Y1dCV3U0s+zAd6y0DsBBji4Etq9yfW/tRfON7xyHd8SxlWRp5fp4W6LznvVPFkmB7JhjjslWW221sLyq9TkrqcV6K5VUUENs09NBzZGCG5XR9mRWBBXQd1bUUcqRdMKECfn/qidutI8//njF16ePpGj0OcNA2BlpbhQVEthJK41tag0Bis/IxslnrIQdi8fweJ7XEWz89P8QOCigkG2SefLdyMq7AsuOIEVlr1xfIFiWLAfQtRGDYWfFcZesYw7IZGmgWtnaMI4oBlsOaEXdDRwQS/tyq60W661UckEtjvmho5JxXuzkZGkdOVWraGAlqf0f//jH6Rt0NbFDEZA5MtOPUpQp0IHM+CgCazncV1pVjRiTxGfvqLjD8frDhg0rW/llI6YPj2VPk6kt1bpyWJcEDXYKmlAcpDjYdKZvsJKYZbAOWM6s7yJxWfI52L462gfaEi2BOO6SMXW0FPg8Henu4CBXVJUlg4oD0btKd6+3UskFNTYuNjIWHqPp2SDaMq6nFMUBsGOyUmInMAGFvgo2tK5YOQRkRnoTNE4++eRw+lLskyDAkUHS18fGWpSJ0RdHVkRAZ4BlHNrC53/00UdDwaBS8zk+nyMsfZEtO795LqfYMHyG5jkDO3nd+Dg+I01O3mf48OHhcQwW7kyTnX5Q+kNZlzSpCNbt6UpoiW4EMjF27KLR+2QZRx11VFi/FIaoeBOcI4Ic47D47hzYmNK0qya+MwUexqbx3u1tssUCBhV6tuG4DfHZCS50S9CV0pWqvd7aI7mgBoZTsABBZtHeTIGjDE1Wdm6as1SKOIJTraPPig2dcUrVRkCm4spORXDYd999Q4bJezOei89BXxXnhBZ9JzbmQYMGhZ2W80vpY6QJQqAisPM6VHHL4fsxYBj0J/J+NBdKz/1kbBoZMBkY/Za8Lu9Lc4PPRMWVcz9ZfmeffXbZsWxtxU7Ae7EueF0OUnyPjmKAKN+R1+N1qBIzJpHmZjRgwIDQuc5yY9T8YostFr4Xy4IxXuysNK1PO+200Blf7X4qvjPj0Xh/Mne2wfYgoFAI4ODIQHGGX7AdsD1wmhxNWUYKdKVqr7f2SDKosUAJagS39gzjiOhYZ0T++eefHzYqAgwbCB2unHRcekpNtdFvQoZAfwqDbMmeGOtF5sDn4chbKVCQGXE2Aydu81z63jgPlKooR+hKfT8sJ06a52Tv+L1pYrZ8P3ZwXo/mF5+Rcz7JfAimBM3bb789NN2qlc0SdNgpwPrsTEczzz3nnHPCzh6zecYN8tkjlgNBmeXIwYFmE8uCzIxlyelDBEGGSBDkugJ9kRxcubV1GEfEwZGzCcjKGMoBqvecT8z2y4GzK4dURNVcb+3RY/LkyW3/HWGpBsaNGxeyVjruCaZtrQKqtmq13pLM1JQO+ukompA1tWesoWqrluvNoKa6xsBhOpppHnZXR7M6r5brzaCmusWQml/+8pfhaE8BhLM7VP9qvd7sU1NdYfgBP81EsSJiaAi/h9bZSqq6Tj2tNzM11RUqj/G0KoaUMKSCX241oNW3elpvZmqSkmKmJikpBjVJSTGoSUqKQU1SUgxqkpJiUJOUFIOapKQY1CQlxaAmKSkGNXU5fpaaCxdz42+pKxnUuhiXreNnjfl1WH6JlqtctRe/U8/PkvMavBavKamYQa0b8ZPg8SK17cE1E7m6kaTWGdS6CRfR4NcL4kVq24orQl1//fXhubyGvsHVtbhACtdeiFdMkgxq3YjfaOcitVy6rOiankXiFbq5bB9Xe9I3uBQgFz/hkoFSZFDrJvSLDRw4MFyJid9ur3T174hmarzoLFfj6dnT1SW1xr2kG3HJMDr8ybzoJ2sN10y89tprw3UquW6jpNYZ1LpRvB4pF6OgnyxeQb3IlClTwsWCyfC4lmefPn3ChYzL4SrpTz75ZHbCCSeEC/TGaisXreVaj0XFidLKLNex5DX4Xfl4vVFu/M28lldrL0VTmmY1703g5vWY8v/XXnstf1R5XDmc9+dq5/H5/GIqV4Nv+d70nR1++OHhMVzbFPyENBd9Zl78Li1xdf2xY8eG63ny2jyOrJmLNtPPWa54w1XyeSzv+cknn4TuAC40zDwuOs0vvPI3r8P95cQKdv/+/bOnnnoqn6uuYFDrZlylmgu8kq2xg5RDMOBitDyWq6BTOX3++efze2f0xRdfZL/4xS/ChXaHDBkSLtC75pprhp3tjjvuCFfl5gK8lTrTCSy/+93vwsVzeT4X+uU9b7zxxmznnXcO120s6gfkeRdeeGG4wDPvzTg0LiJNkOD/XA280k5MsDnooINC05yff2bn57NPnjw5u+aaa8J7n3feeSHIdwSfmSDHVc650DIHCg4q8WLNXBx6q622Chf45YIhlfA6BLQbbrgh/J/PxPpZYYUVwoWOeb1yHnnkkbDOed9qXeRZxQxq3YyrVG+99dYVh3ewI7IDsKNwdF9ggQXye4qxc5F1kVVxpXSCF1MCBEGJnWj06NGhY70cAsq9996bPfTQQyEwEXDfeeed7MQTTwyf9Ywzzsiefvrp/NFf43NylXaqj2R1XNWeIMVzuSI4r7P88stnRxxxRKhUFiF48T5kabz++PHjp3/2ESNGhMeMGjUqe+aZZ8LfXBGdi3nwvDFjxoR5BEXel3ncSq+gf//994dgxvuTOb766qvh4PDggw+G5USWxuO5ovzpp59eNtuiGMHnIWNjWfM+fI4VV1wxGzBgQMhUec0irOM4PpHMmavwq+sY1GqATv+NNtqo7PAOiggECzIAHstFLSrhfq7cQ1Ahy+nVq1eYT2GBLGT//fcPgenhhx8O84sQhBgewaj/WJAgAB9zzDGhyVy00xIghg8fHv7mkmh77bVXCDrgM1GxHTp0aHg+71+E9zr22GNDNkZzML43TXWyPG689xNPPBHmtwfNe7JIMiiqpASt0mExLCcyxIsuuihkUJdffnkIqEXo2yTLPvroo0NTN+L7kt2CTK7oe/L+99133/SsW13LoFYDCy20UOjLKje8g2yJTI3+H8antYar+JDRFV0wluCyxBJLhL/Zuco1QWlWkVW11K9fv+lFCjKqUhQy2JF32mmnEFSLgi9ZCZkSTb4iBE6u4F1U2SVgLLzwwuFvgm57kfnR/CaY7L333tODfUt8b74/Aem2224LzfmWOMCwPopeg0AVuxSKPicHA5ZVW7JudZ5BrQbY+cnA2FHo4+Fq1hHNn1tuuSVkFASKcjtiEfq3CFxkgOeee27ovKYv6cgjj8wfUR4ZWlFQwqKLLhqm48aNmx4UCcSxT5CdulKTar755gtZWyUEEoI8QYWMkSC0wQYbZKeeemr+iPajcEKgWmuttUJwLofvTaYGglJRE5QCRgywLRGoCFg0mcnISg9SvD/zWJ8bbrhh2WWs6jGo1cjSSy8dMhSqe2RrEc0fKqM0aRis2xZUB3kOVU+acDQ5jz/++NAJTsGhLR3TM800U/5X23z22WfTx9p1Jvugv4nmH9+VyuAOO+wQmooUJmg+tiVTLSdmlnz/1r4fgXfVVVcNB4aiSi99hrPMMkv+vxkRqNZff/0QuMjKJkyYkN+ThUBNBsf6LMqEVX0GtRqhqUhljx2B7IQdmB2c4gFH97Z2KJMVEADIysj4qII+8MAD4W8yDjrF6SDvSnPNNVf+V/sQQOhLI5NkeZChUSUkGJERkmnRT9cICMoELgJYLKiwbghyZHAWCLqPQa2G6NSPOwJNOYoGNB3b06FMJY4O7r59+2ZXXnllqETSBzb//POXzSyqgewkZj8vv/xymJZDsC4aY/fiiy+Gz0yGREc8RYnVVlst9LO1p9ldDssEBJWW/ZYtUXWl34u+v468NwGLwMUBieyb9yOT5ewRCwTdy6BWQ6U7AtkafWk0V+i0bmuTjqEG7LQ03QgOLbFztezgrwaKEzR18dhjjxUOTYnIvorG2MVAQhAuaiLzmjymo1gmBCmKGZVOS2MZMXwG9HPGYNheHKTWXXfd0IfG+5Gx8br0pVkg6D4GtRqLlbOrr746jLuiw5r/t7dDmcA4ceLE/H/fYHwXw0O6AuO7aD7TZC43FILiAqPyKyEwF1Ucec147mtHlA50Zhwazd0icRkRWBl+0t7+xWiRRRbJNtlkkxDIGMDMgYoASTZugaD7GNRqjCM4wzvIthisyg4Qq41tQQc2gYWBtQwOjade0dn96KOPhoJBV+1QnDnAcA4qrow14wyIGDji+zMwluZkzOpKxc55CiUUNWJlldfgtWhKzznnnGFeEYaqkIkR/IrG+/G+nMpEsDrzzDOzU045JSzniPdhwDEDfwlETGn+dhTBkHVJIONsCL4/67OtBR9Vh0Gtxgg4ZAdkaAQndor2ZAoEhkGDBoWd+6yzzpo+rozXIgskW2GcWFdgHBmnX3EmA81IzpRgXun7U+X96U9/Gs5dbYn7KASQZR533HFhyATP5TtwahcDb2mel8Nofk725735nlR/GXpBczNitD8FCD4P52kutthiIcBSreSzUoF+/PHHs9NOOy0ULDrbl0fzleyQIE3BxgJB9zOo1QEyM47oHT2qc8I7ndOc4E3mRh8X54FSFSXb6WgfUVtwcvjIkSPDTkyAIbgy1osAw/sTUMq9P8E7ZngM5QDPpQnHSficj1mp2EEmds4554SASDZGk49KLJ8h4qDBoFmWD0Gf/i0ySzIzlhFBmSDIMBKCXGfx3rwHOFuBIK3u1WPy5Mlt+7VCSa2i6MB5tATkk046KTv55JM73EenjjFTk6qI8YEMU+lIV4Kqw6AmVQlZGuPSaOpaIKgdg5pUBVR7b7/99lBlpX+PMzwsENSGfWpSJ1BkoCAQUSgYNmxYqNw6Nq02zNSkTuDXhak4E8wY2sKAWwNabZmpSUqKmZqkpBjUJCXFoCYpKQY1SUkxqElKikFNUlIMapKSYlCTlBSDmqRkcIGfnuPffz//ryQ1ro8nTsw++/zz7P8BXB38/nLrBGMAAAAASUVORK5CYII=;" parent="CMUXqy-xraMfQoJJQTi_-4" vertex="1">
          <mxGeometry x="210" y="80" width="130" height="172.07" as="geometry" />
        </mxCell>
        <mxCell id="CMUXqy-xraMfQoJJQTi_-8" value="PK = Primary Key&lt;br&gt;FK = Foreign Key&lt;br&gt;&amp;nbsp;CK = Composite Key" style="whiteSpace=wrap;html=1;" parent="CMUXqy-xraMfQoJJQTi_-4" vertex="1">
          <mxGeometry x="210" y="280" width="120" height="60" as="geometry" />
        </mxCell>
        <mxCell id="CMUXqy-xraMfQoJJQTi_-9" value="&lt;b&gt;&lt;font style=&quot;font-size: 28px;&quot;&gt;COEN 275 - Project - Recipe App&lt;br&gt;&lt;/font&gt;&lt;/b&gt;" style="text;html=1;align=center;verticalAlign=middle;resizable=0;points=[];autosize=1;strokeColor=none;fillColor=none;fontSize=16;" parent="1" vertex="1">
          <mxGeometry x="200" y="20" width="460" height="50" as="geometry" />
        </mxCell>
        <mxCell id="CMUXqy-xraMfQoJJQTi_-10" value="Allergy_info" style="swimlane;childLayout=stackLayout;horizontal=1;startSize=30;horizontalStack=0;rounded=1;fontSize=16;fontStyle=0;strokeWidth=2;resizeParent=0;resizeLast=1;shadow=0;dashed=0;align=center;" parent="1" vertex="1">
          <mxGeometry x="640" y="375" width="360" height="80" as="geometry" />
        </mxCell>
        <mxCell id="CMUXqy-xraMfQoJJQTi_-11" value="+allergen_id             number           not null         PK&#xa;+allergen_name       varchar(100)   not null" style="align=left;strokeColor=none;fillColor=none;spacingLeft=4;fontSize=14;verticalAlign=top;resizable=0;rotatable=0;part=1;" parent="CMUXqy-xraMfQoJJQTi_-10" vertex="1">
          <mxGeometry y="30" width="360" height="50" as="geometry" />
        </mxCell>
        <mxCell id="CMUXqy-xraMfQoJJQTi_-12" value="User_category " style="swimlane;childLayout=stackLayout;horizontal=1;startSize=30;horizontalStack=0;rounded=1;fontSize=16;fontStyle=0;strokeWidth=2;resizeParent=0;resizeLast=1;shadow=0;dashed=0;align=center;" parent="1" vertex="1">
          <mxGeometry x="-480" y="210" width="320" height="80" as="geometry" />
        </mxCell>
        <mxCell id="CMUXqy-xraMfQoJJQTi_-13" value="+user_id            number          not null         FK&#xa;+category_id      number          not null         FK" style="align=left;strokeColor=none;fillColor=none;spacingLeft=4;fontSize=14;verticalAlign=top;resizable=0;rotatable=0;part=1;" parent="CMUXqy-xraMfQoJJQTi_-12" vertex="1">
          <mxGeometry y="30" width="320" height="50" as="geometry" />
        </mxCell>
        <mxCell id="CMUXqy-xraMfQoJJQTi_-14" value="Recipes" style="swimlane;childLayout=stackLayout;horizontal=1;startSize=30;horizontalStack=0;rounded=1;fontSize=16;fontStyle=0;strokeWidth=2;resizeParent=0;resizeLast=1;shadow=0;dashed=0;align=center;" parent="1" vertex="1">
          <mxGeometry x="-180" y="340" width="320" height="150" as="geometry" />
        </mxCell>
        <mxCell id="CMUXqy-xraMfQoJJQTi_-15" value="+recipe_id          number          not null         PK&#xa;+title                   varchar(50)    not null&#xa;+user_id             number          not null         FK&#xa;+cooking_time    number        not null&#xa;+timestamp         date               not null &#xa;+image_url          varchar(200)" style="align=left;strokeColor=none;fillColor=none;spacingLeft=4;fontSize=14;verticalAlign=top;resizable=0;rotatable=0;part=1;" parent="CMUXqy-xraMfQoJJQTi_-14" vertex="1">
          <mxGeometry y="30" width="320" height="120" as="geometry" />
        </mxCell>
        <mxCell id="CMUXqy-xraMfQoJJQTi_-16" value="Category" style="swimlane;childLayout=stackLayout;horizontal=1;startSize=30;horizontalStack=0;rounded=1;fontSize=16;fontStyle=0;strokeWidth=2;resizeParent=0;resizeLast=1;shadow=0;dashed=0;align=center;" parent="1" vertex="1">
          <mxGeometry x="230" y="590" width="320" height="80" as="geometry" />
        </mxCell>
        <mxCell id="CMUXqy-xraMfQoJJQTi_-17" value="+category_id           number          not null         PK&#xa;+category_name     varchar(50)    not null" style="align=left;strokeColor=none;fillColor=none;spacingLeft=4;fontSize=14;verticalAlign=top;resizable=0;rotatable=0;part=1;" parent="CMUXqy-xraMfQoJJQTi_-16" vertex="1">
          <mxGeometry y="30" width="320" height="50" as="geometry" />
        </mxCell>
        <mxCell id="CMUXqy-xraMfQoJJQTi_-18" value="Recipe_category" style="swimlane;childLayout=stackLayout;horizontal=1;startSize=30;horizontalStack=0;rounded=1;fontSize=16;fontStyle=0;strokeWidth=2;resizeParent=0;resizeLast=1;shadow=0;dashed=0;align=center;" parent="1" vertex="1">
          <mxGeometry x="-160" y="590" width="320" height="80" as="geometry" />
        </mxCell>
        <mxCell id="CMUXqy-xraMfQoJJQTi_-19" value="+recipe_id          number          not null         FK&#xa;+category_id      number          not null         FK" style="align=left;strokeColor=none;fillColor=none;spacingLeft=4;fontSize=14;verticalAlign=top;resizable=0;rotatable=0;part=1;" parent="CMUXqy-xraMfQoJJQTi_-18" vertex="1">
          <mxGeometry y="30" width="320" height="50" as="geometry" />
        </mxCell>
        <mxCell id="CMUXqy-xraMfQoJJQTi_-20" value="Recipe_allergy_info" style="swimlane;childLayout=stackLayout;horizontal=1;startSize=30;horizontalStack=0;rounded=1;fontSize=16;fontStyle=0;strokeWidth=2;resizeParent=0;resizeLast=1;shadow=0;dashed=0;align=center;" parent="1" vertex="1">
          <mxGeometry x="660" y="590" width="320" height="80" as="geometry" />
        </mxCell>
        <mxCell id="CMUXqy-xraMfQoJJQTi_-21" value="+recipe_id           number          not null         FK&#xa;+allergen_id        varchar(50)    not null        FK" style="align=left;strokeColor=none;fillColor=none;spacingLeft=4;fontSize=14;verticalAlign=top;resizable=0;rotatable=0;part=1;" parent="CMUXqy-xraMfQoJJQTi_-20" vertex="1">
          <mxGeometry y="30" width="320" height="50" as="geometry" />
        </mxCell>
        <mxCell id="CMUXqy-xraMfQoJJQTi_-22" value="Recipe_rating" style="swimlane;childLayout=stackLayout;horizontal=1;startSize=30;horizontalStack=0;rounded=1;fontSize=16;fontStyle=0;strokeWidth=2;resizeParent=0;resizeLast=1;shadow=0;dashed=0;align=center;" parent="1" vertex="1">
          <mxGeometry x="210" y="340" width="320" height="150" as="geometry" />
        </mxCell>
        <mxCell id="CMUXqy-xraMfQoJJQTi_-23" value="+rating_id            number        not null          PK&#xa;+recipe_id           number        not null          FK&#xa;+user_id              number        not null          FK&#xa;+rating                 number        not null    &#xa;+review                varchar(200)    not null&#xa;+timestamp          date             not null" style="align=left;strokeColor=none;fillColor=none;spacingLeft=4;fontSize=14;verticalAlign=top;resizable=0;rotatable=0;part=1;" parent="CMUXqy-xraMfQoJJQTi_-22" vertex="1">
          <mxGeometry y="30" width="320" height="120" as="geometry" />
        </mxCell>
        <mxCell id="rohQ9pY4YyOlcuC6_-ZZ-1" value="User_allergy_info" style="swimlane;childLayout=stackLayout;horizontal=1;startSize=30;horizontalStack=0;rounded=1;fontSize=16;fontStyle=0;strokeWidth=2;resizeParent=0;resizeLast=1;shadow=0;dashed=0;align=center;" vertex="1" parent="1">
          <mxGeometry x="500" y="190" width="320" height="80" as="geometry" />
        </mxCell>
        <mxCell id="rohQ9pY4YyOlcuC6_-ZZ-2" value="+user_id            number          not null         FK&#xa;+allergen_id      number          not null         FK" style="align=left;strokeColor=none;fillColor=none;spacingLeft=4;fontSize=14;verticalAlign=top;resizable=0;rotatable=0;part=1;" vertex="1" parent="rohQ9pY4YyOlcuC6_-ZZ-1">
          <mxGeometry y="30" width="320" height="50" as="geometry" />
        </mxCell>
      </root>
    </mxGraphModel>
  </diagram>
</mxfile>
